G04 MADE WITH FRITZING*
G04 WWW.FRITZING.ORG*
G04 DOUBLE SIDED*
G04 HOLES PLATED*
G04 CONTOUR ON CENTER OF CONTOUR VECTOR*
%ASAXBY*%
%FSLAX23Y23*%
%MOIN*%
%OFA0B0*%
%SFA1.0B1.0*%
%ADD10C,0.039370*%
%ADD11C,0.044882*%
%ADD12C,0.078000*%
%ADD13R,0.118110X0.068898*%
%ADD14C,0.024000*%
%ADD15R,0.001000X0.001000*%
%LNCOPPER0*%
G90*
G70*
G54D10*
X475Y106D03*
G54D11*
X475Y688D03*
X475Y609D03*
X475Y531D03*
X475Y452D03*
X325Y688D03*
X325Y609D03*
X325Y531D03*
X325Y452D03*
X325Y373D03*
X325Y294D03*
G54D12*
X100Y781D03*
G54D13*
X700Y531D03*
X700Y431D03*
X75Y331D03*
X75Y231D03*
X700Y731D03*
X75Y631D03*
X75Y431D03*
X75Y531D03*
X700Y631D03*
G54D14*
X427Y141D02*
X421Y619D01*
D02*
X361Y689D02*
X343Y688D01*
D02*
X421Y619D02*
X361Y689D01*
D02*
X459Y117D02*
X427Y141D01*
D02*
X250Y630D02*
X128Y630D01*
D02*
X310Y677D02*
X250Y630D01*
D02*
X220Y535D02*
X309Y599D01*
D02*
X128Y532D02*
X220Y535D01*
D02*
X350Y230D02*
X375Y256D01*
D02*
X373Y413D02*
X339Y440D01*
D02*
X375Y256D02*
X373Y413D01*
D02*
X128Y230D02*
X350Y230D01*
D02*
X175Y331D02*
X215Y298D01*
D02*
X215Y298D02*
X306Y295D01*
D02*
X128Y331D02*
X175Y331D01*
D02*
X250Y430D02*
X310Y384D01*
D02*
X128Y430D02*
X250Y430D01*
D02*
X542Y631D02*
X489Y676D01*
D02*
X646Y631D02*
X542Y631D01*
D02*
X571Y531D02*
X489Y598D01*
D02*
X646Y531D02*
X571Y531D01*
D02*
X646Y430D02*
X574Y430D01*
D02*
X574Y430D02*
X488Y517D01*
G54D15*
D02*
G04 End of Copper0*
M02*