G04 MADE WITH FRITZING*
G04 WWW.FRITZING.ORG*
G04 DOUBLE SIDED*
G04 HOLES PLATED*
G04 CONTOUR ON CENTER OF CONTOUR VECTOR*
%ASAXBY*%
%FSLAX23Y23*%
%MOIN*%
%OFA0B0*%
%SFA1.0B1.0*%
%ADD10C,0.005000*%
%ADD11R,0.001000X0.001000*%
%LNSILK1*%
G90*
G70*
G54D10*
X277Y739D02*
X328Y739D01*
D02*
X328Y739D02*
X328Y842D01*
D02*
X171Y842D02*
X171Y739D01*
D02*
X171Y739D02*
X222Y739D01*
D02*
X277Y842D02*
X328Y842D01*
D02*
X171Y842D02*
X222Y842D01*
D02*
X277Y735D02*
X328Y735D01*
D02*
X171Y735D02*
X222Y735D01*
D02*
X277Y731D02*
X328Y731D01*
D02*
X171Y731D02*
X222Y731D01*
D02*
X328Y731D02*
X328Y739D01*
D02*
X277Y731D02*
X277Y739D01*
D02*
X222Y731D02*
X222Y739D01*
D02*
X171Y731D02*
X171Y739D01*
G54D11*
X0Y906D02*
X786Y906D01*
X0Y905D02*
X786Y905D01*
X0Y904D02*
X786Y904D01*
X0Y903D02*
X786Y903D01*
X0Y902D02*
X786Y902D01*
X0Y901D02*
X786Y901D01*
X0Y900D02*
X786Y900D01*
X0Y899D02*
X786Y899D01*
X0Y898D02*
X7Y898D01*
X779Y898D02*
X786Y898D01*
X0Y897D02*
X7Y897D01*
X779Y897D02*
X786Y897D01*
X0Y896D02*
X7Y896D01*
X779Y896D02*
X786Y896D01*
X0Y895D02*
X7Y895D01*
X779Y895D02*
X786Y895D01*
X0Y894D02*
X7Y894D01*
X779Y894D02*
X786Y894D01*
X0Y893D02*
X7Y893D01*
X779Y893D02*
X786Y893D01*
X0Y892D02*
X7Y892D01*
X779Y892D02*
X786Y892D01*
X0Y891D02*
X7Y891D01*
X779Y891D02*
X786Y891D01*
X0Y890D02*
X7Y890D01*
X779Y890D02*
X786Y890D01*
X0Y889D02*
X7Y889D01*
X779Y889D02*
X786Y889D01*
X0Y888D02*
X7Y888D01*
X779Y888D02*
X786Y888D01*
X0Y887D02*
X7Y887D01*
X779Y887D02*
X786Y887D01*
X0Y886D02*
X7Y886D01*
X779Y886D02*
X786Y886D01*
X0Y885D02*
X7Y885D01*
X779Y885D02*
X786Y885D01*
X0Y884D02*
X7Y884D01*
X779Y884D02*
X786Y884D01*
X0Y883D02*
X7Y883D01*
X779Y883D02*
X786Y883D01*
X0Y882D02*
X7Y882D01*
X779Y882D02*
X786Y882D01*
X0Y881D02*
X7Y881D01*
X779Y881D02*
X786Y881D01*
X0Y880D02*
X7Y880D01*
X779Y880D02*
X786Y880D01*
X0Y879D02*
X7Y879D01*
X390Y879D02*
X401Y879D01*
X421Y879D02*
X437Y879D01*
X479Y879D02*
X499Y879D01*
X540Y879D02*
X551Y879D01*
X570Y879D02*
X587Y879D01*
X601Y879D02*
X617Y879D01*
X630Y879D02*
X634Y879D01*
X779Y879D02*
X786Y879D01*
X0Y878D02*
X7Y878D01*
X389Y878D02*
X401Y878D01*
X420Y878D02*
X438Y878D01*
X479Y878D02*
X499Y878D01*
X539Y878D02*
X551Y878D01*
X569Y878D02*
X588Y878D01*
X600Y878D02*
X618Y878D01*
X629Y878D02*
X635Y878D01*
X779Y878D02*
X786Y878D01*
X0Y877D02*
X7Y877D01*
X390Y877D02*
X401Y877D01*
X420Y877D02*
X439Y877D01*
X479Y877D02*
X499Y877D01*
X540Y877D02*
X551Y877D01*
X570Y877D02*
X589Y877D01*
X600Y877D02*
X619Y877D01*
X629Y877D02*
X634Y877D01*
X779Y877D02*
X786Y877D01*
X0Y876D02*
X7Y876D01*
X391Y876D02*
X401Y876D01*
X419Y876D02*
X439Y876D01*
X479Y876D02*
X498Y876D01*
X540Y876D02*
X551Y876D01*
X570Y876D02*
X589Y876D01*
X599Y876D02*
X619Y876D01*
X629Y876D02*
X633Y876D01*
X779Y876D02*
X786Y876D01*
X0Y875D02*
X7Y875D01*
X398Y875D02*
X401Y875D01*
X419Y875D02*
X423Y875D01*
X436Y875D02*
X439Y875D01*
X479Y875D02*
X483Y875D01*
X548Y875D02*
X551Y875D01*
X586Y875D02*
X589Y875D01*
X599Y875D02*
X603Y875D01*
X616Y875D02*
X619Y875D01*
X629Y875D02*
X632Y875D01*
X779Y875D02*
X786Y875D01*
X0Y874D02*
X7Y874D01*
X398Y874D02*
X401Y874D01*
X419Y874D02*
X423Y874D01*
X436Y874D02*
X439Y874D01*
X479Y874D02*
X483Y874D01*
X548Y874D02*
X551Y874D01*
X586Y874D02*
X589Y874D01*
X599Y874D02*
X603Y874D01*
X616Y874D02*
X619Y874D01*
X629Y874D02*
X632Y874D01*
X779Y874D02*
X786Y874D01*
X0Y873D02*
X7Y873D01*
X398Y873D02*
X401Y873D01*
X419Y873D02*
X423Y873D01*
X436Y873D02*
X439Y873D01*
X479Y873D02*
X483Y873D01*
X548Y873D02*
X551Y873D01*
X586Y873D02*
X589Y873D01*
X599Y873D02*
X603Y873D01*
X616Y873D02*
X619Y873D01*
X629Y873D02*
X632Y873D01*
X779Y873D02*
X786Y873D01*
X0Y872D02*
X7Y872D01*
X398Y872D02*
X401Y872D01*
X419Y872D02*
X423Y872D01*
X436Y872D02*
X439Y872D01*
X479Y872D02*
X483Y872D01*
X548Y872D02*
X551Y872D01*
X586Y872D02*
X589Y872D01*
X599Y872D02*
X603Y872D01*
X616Y872D02*
X619Y872D01*
X629Y872D02*
X632Y872D01*
X779Y872D02*
X786Y872D01*
X0Y871D02*
X7Y871D01*
X398Y871D02*
X401Y871D01*
X419Y871D02*
X423Y871D01*
X436Y871D02*
X439Y871D01*
X451Y871D02*
X451Y871D01*
X479Y871D02*
X483Y871D01*
X548Y871D02*
X551Y871D01*
X586Y871D02*
X589Y871D01*
X599Y871D02*
X603Y871D01*
X616Y871D02*
X619Y871D01*
X629Y871D02*
X632Y871D01*
X779Y871D02*
X786Y871D01*
X0Y870D02*
X7Y870D01*
X398Y870D02*
X401Y870D01*
X419Y870D02*
X423Y870D01*
X436Y870D02*
X439Y870D01*
X450Y870D02*
X452Y870D01*
X466Y870D02*
X469Y870D01*
X479Y870D02*
X483Y870D01*
X548Y870D02*
X551Y870D01*
X586Y870D02*
X589Y870D01*
X599Y870D02*
X603Y870D01*
X616Y870D02*
X619Y870D01*
X629Y870D02*
X632Y870D01*
X779Y870D02*
X786Y870D01*
X0Y869D02*
X7Y869D01*
X398Y869D02*
X401Y869D01*
X419Y869D02*
X423Y869D01*
X436Y869D02*
X439Y869D01*
X449Y869D02*
X453Y869D01*
X466Y869D02*
X469Y869D01*
X479Y869D02*
X494Y869D01*
X548Y869D02*
X551Y869D01*
X586Y869D02*
X589Y869D01*
X599Y869D02*
X603Y869D01*
X616Y869D02*
X619Y869D01*
X629Y869D02*
X632Y869D01*
X779Y869D02*
X786Y869D01*
X0Y868D02*
X7Y868D01*
X398Y868D02*
X401Y868D01*
X419Y868D02*
X423Y868D01*
X436Y868D02*
X439Y868D01*
X449Y868D02*
X453Y868D01*
X466Y868D02*
X469Y868D01*
X479Y868D02*
X495Y868D01*
X548Y868D02*
X551Y868D01*
X586Y868D02*
X589Y868D01*
X599Y868D02*
X603Y868D01*
X616Y868D02*
X619Y868D01*
X629Y868D02*
X632Y868D01*
X779Y868D02*
X786Y868D01*
X0Y867D02*
X7Y867D01*
X398Y867D02*
X401Y867D01*
X419Y867D02*
X423Y867D01*
X436Y867D02*
X439Y867D01*
X449Y867D02*
X453Y867D01*
X466Y867D02*
X469Y867D01*
X479Y867D02*
X495Y867D01*
X548Y867D02*
X551Y867D01*
X586Y867D02*
X589Y867D01*
X599Y867D02*
X603Y867D01*
X616Y867D02*
X619Y867D01*
X629Y867D02*
X632Y867D01*
X779Y867D02*
X786Y867D01*
X0Y866D02*
X7Y866D01*
X398Y866D02*
X401Y866D01*
X419Y866D02*
X423Y866D01*
X436Y866D02*
X439Y866D01*
X449Y866D02*
X453Y866D01*
X466Y866D02*
X469Y866D01*
X479Y866D02*
X495Y866D01*
X548Y866D02*
X551Y866D01*
X586Y866D02*
X589Y866D01*
X599Y866D02*
X603Y866D01*
X616Y866D02*
X619Y866D01*
X629Y866D02*
X632Y866D01*
X779Y866D02*
X786Y866D01*
X0Y865D02*
X7Y865D01*
X398Y865D02*
X401Y865D01*
X419Y865D02*
X423Y865D01*
X436Y865D02*
X439Y865D01*
X450Y865D02*
X453Y865D01*
X466Y865D02*
X469Y865D01*
X479Y865D02*
X483Y865D01*
X548Y865D02*
X551Y865D01*
X571Y865D02*
X589Y865D01*
X599Y865D02*
X603Y865D01*
X616Y865D02*
X619Y865D01*
X629Y865D02*
X632Y865D01*
X779Y865D02*
X786Y865D01*
X0Y864D02*
X7Y864D01*
X398Y864D02*
X401Y864D01*
X419Y864D02*
X423Y864D01*
X436Y864D02*
X439Y864D01*
X450Y864D02*
X453Y864D01*
X466Y864D02*
X469Y864D01*
X479Y864D02*
X483Y864D01*
X548Y864D02*
X551Y864D01*
X570Y864D02*
X589Y864D01*
X599Y864D02*
X603Y864D01*
X616Y864D02*
X619Y864D01*
X629Y864D02*
X632Y864D01*
X779Y864D02*
X786Y864D01*
X0Y863D02*
X7Y863D01*
X398Y863D02*
X401Y863D01*
X419Y863D02*
X423Y863D01*
X436Y863D02*
X439Y863D01*
X450Y863D02*
X453Y863D01*
X466Y863D02*
X469Y863D01*
X479Y863D02*
X483Y863D01*
X548Y863D02*
X551Y863D01*
X570Y863D02*
X588Y863D01*
X599Y863D02*
X603Y863D01*
X616Y863D02*
X619Y863D01*
X629Y863D02*
X632Y863D01*
X779Y863D02*
X786Y863D01*
X0Y862D02*
X7Y862D01*
X398Y862D02*
X401Y862D01*
X407Y862D02*
X408Y862D01*
X419Y862D02*
X423Y862D01*
X436Y862D02*
X439Y862D01*
X450Y862D02*
X453Y862D01*
X466Y862D02*
X469Y862D01*
X479Y862D02*
X483Y862D01*
X548Y862D02*
X551Y862D01*
X557Y862D02*
X558Y862D01*
X569Y862D02*
X587Y862D01*
X599Y862D02*
X603Y862D01*
X616Y862D02*
X619Y862D01*
X629Y862D02*
X648Y862D01*
X779Y862D02*
X786Y862D01*
X0Y861D02*
X7Y861D01*
X398Y861D02*
X401Y861D01*
X406Y861D02*
X409Y861D01*
X419Y861D02*
X423Y861D01*
X436Y861D02*
X439Y861D01*
X450Y861D02*
X453Y861D01*
X466Y861D02*
X469Y861D01*
X479Y861D02*
X483Y861D01*
X548Y861D02*
X551Y861D01*
X556Y861D02*
X559Y861D01*
X569Y861D02*
X573Y861D01*
X599Y861D02*
X603Y861D01*
X616Y861D02*
X619Y861D01*
X629Y861D02*
X649Y861D01*
X779Y861D02*
X786Y861D01*
X0Y860D02*
X7Y860D01*
X398Y860D02*
X401Y860D01*
X406Y860D02*
X409Y860D01*
X419Y860D02*
X423Y860D01*
X436Y860D02*
X439Y860D01*
X450Y860D02*
X453Y860D01*
X466Y860D02*
X469Y860D01*
X479Y860D02*
X483Y860D01*
X548Y860D02*
X551Y860D01*
X556Y860D02*
X559Y860D01*
X569Y860D02*
X573Y860D01*
X599Y860D02*
X603Y860D01*
X616Y860D02*
X619Y860D01*
X629Y860D02*
X649Y860D01*
X779Y860D02*
X786Y860D01*
X0Y859D02*
X7Y859D01*
X398Y859D02*
X401Y859D01*
X406Y859D02*
X409Y859D01*
X419Y859D02*
X423Y859D01*
X436Y859D02*
X439Y859D01*
X450Y859D02*
X453Y859D01*
X466Y859D02*
X469Y859D01*
X479Y859D02*
X483Y859D01*
X548Y859D02*
X551Y859D01*
X556Y859D02*
X559Y859D01*
X569Y859D02*
X573Y859D01*
X599Y859D02*
X603Y859D01*
X616Y859D02*
X619Y859D01*
X629Y859D02*
X649Y859D01*
X779Y859D02*
X786Y859D01*
X0Y858D02*
X7Y858D01*
X398Y858D02*
X401Y858D01*
X406Y858D02*
X409Y858D01*
X419Y858D02*
X423Y858D01*
X436Y858D02*
X439Y858D01*
X450Y858D02*
X453Y858D01*
X466Y858D02*
X469Y858D01*
X479Y858D02*
X483Y858D01*
X548Y858D02*
X551Y858D01*
X556Y858D02*
X559Y858D01*
X569Y858D02*
X573Y858D01*
X599Y858D02*
X603Y858D01*
X616Y858D02*
X619Y858D01*
X629Y858D02*
X633Y858D01*
X645Y858D02*
X649Y858D01*
X779Y858D02*
X786Y858D01*
X0Y857D02*
X7Y857D01*
X398Y857D02*
X401Y857D01*
X406Y857D02*
X409Y857D01*
X419Y857D02*
X423Y857D01*
X436Y857D02*
X439Y857D01*
X450Y857D02*
X453Y857D01*
X466Y857D02*
X469Y857D01*
X479Y857D02*
X483Y857D01*
X548Y857D02*
X551Y857D01*
X556Y857D02*
X559Y857D01*
X569Y857D02*
X573Y857D01*
X599Y857D02*
X603Y857D01*
X616Y857D02*
X619Y857D01*
X629Y857D02*
X632Y857D01*
X646Y857D02*
X649Y857D01*
X779Y857D02*
X786Y857D01*
X0Y856D02*
X7Y856D01*
X398Y856D02*
X401Y856D01*
X406Y856D02*
X409Y856D01*
X419Y856D02*
X423Y856D01*
X436Y856D02*
X439Y856D01*
X450Y856D02*
X453Y856D01*
X466Y856D02*
X469Y856D01*
X479Y856D02*
X483Y856D01*
X548Y856D02*
X551Y856D01*
X556Y856D02*
X559Y856D01*
X569Y856D02*
X573Y856D01*
X599Y856D02*
X603Y856D01*
X616Y856D02*
X619Y856D01*
X629Y856D02*
X632Y856D01*
X646Y856D02*
X649Y856D01*
X779Y856D02*
X786Y856D01*
X0Y855D02*
X7Y855D01*
X398Y855D02*
X401Y855D01*
X406Y855D02*
X409Y855D01*
X419Y855D02*
X423Y855D01*
X436Y855D02*
X439Y855D01*
X450Y855D02*
X453Y855D01*
X464Y855D02*
X469Y855D01*
X479Y855D02*
X483Y855D01*
X548Y855D02*
X551Y855D01*
X556Y855D02*
X559Y855D01*
X569Y855D02*
X573Y855D01*
X599Y855D02*
X603Y855D01*
X616Y855D02*
X619Y855D01*
X629Y855D02*
X632Y855D01*
X646Y855D02*
X649Y855D01*
X779Y855D02*
X786Y855D01*
X0Y854D02*
X7Y854D01*
X398Y854D02*
X401Y854D01*
X406Y854D02*
X409Y854D01*
X419Y854D02*
X423Y854D01*
X436Y854D02*
X439Y854D01*
X450Y854D02*
X453Y854D01*
X463Y854D02*
X469Y854D01*
X479Y854D02*
X483Y854D01*
X548Y854D02*
X551Y854D01*
X556Y854D02*
X559Y854D01*
X569Y854D02*
X573Y854D01*
X599Y854D02*
X603Y854D01*
X616Y854D02*
X619Y854D01*
X629Y854D02*
X632Y854D01*
X646Y854D02*
X649Y854D01*
X779Y854D02*
X786Y854D01*
X0Y853D02*
X7Y853D01*
X398Y853D02*
X401Y853D01*
X406Y853D02*
X409Y853D01*
X419Y853D02*
X423Y853D01*
X436Y853D02*
X439Y853D01*
X450Y853D02*
X453Y853D01*
X461Y853D02*
X469Y853D01*
X479Y853D02*
X483Y853D01*
X548Y853D02*
X551Y853D01*
X556Y853D02*
X559Y853D01*
X569Y853D02*
X573Y853D01*
X599Y853D02*
X603Y853D01*
X616Y853D02*
X619Y853D01*
X629Y853D02*
X632Y853D01*
X646Y853D02*
X649Y853D01*
X779Y853D02*
X786Y853D01*
X0Y852D02*
X7Y852D01*
X398Y852D02*
X401Y852D01*
X406Y852D02*
X409Y852D01*
X419Y852D02*
X423Y852D01*
X436Y852D02*
X439Y852D01*
X450Y852D02*
X454Y852D01*
X460Y852D02*
X469Y852D01*
X479Y852D02*
X483Y852D01*
X548Y852D02*
X551Y852D01*
X556Y852D02*
X559Y852D01*
X569Y852D02*
X573Y852D01*
X599Y852D02*
X603Y852D01*
X616Y852D02*
X619Y852D01*
X629Y852D02*
X633Y852D01*
X646Y852D02*
X649Y852D01*
X779Y852D02*
X786Y852D01*
X0Y851D02*
X7Y851D01*
X390Y851D02*
X409Y851D01*
X420Y851D02*
X439Y851D01*
X451Y851D02*
X469Y851D01*
X479Y851D02*
X483Y851D01*
X540Y851D02*
X559Y851D01*
X569Y851D02*
X588Y851D01*
X599Y851D02*
X619Y851D01*
X629Y851D02*
X649Y851D01*
X779Y851D02*
X786Y851D01*
X0Y850D02*
X7Y850D01*
X390Y850D02*
X409Y850D01*
X420Y850D02*
X439Y850D01*
X451Y850D02*
X463Y850D01*
X466Y850D02*
X469Y850D01*
X479Y850D02*
X483Y850D01*
X539Y850D02*
X559Y850D01*
X569Y850D02*
X589Y850D01*
X600Y850D02*
X619Y850D01*
X629Y850D02*
X649Y850D01*
X779Y850D02*
X786Y850D01*
X0Y849D02*
X7Y849D01*
X390Y849D02*
X409Y849D01*
X420Y849D02*
X438Y849D01*
X452Y849D02*
X462Y849D01*
X466Y849D02*
X469Y849D01*
X479Y849D02*
X482Y849D01*
X539Y849D02*
X559Y849D01*
X569Y849D02*
X589Y849D01*
X600Y849D02*
X618Y849D01*
X629Y849D02*
X649Y849D01*
X779Y849D02*
X786Y849D01*
X0Y848D02*
X7Y848D01*
X390Y848D02*
X408Y848D01*
X422Y848D02*
X437Y848D01*
X454Y848D02*
X460Y848D01*
X467Y848D02*
X468Y848D01*
X480Y848D02*
X482Y848D01*
X540Y848D02*
X558Y848D01*
X569Y848D02*
X588Y848D01*
X602Y848D02*
X617Y848D01*
X630Y848D02*
X648Y848D01*
X779Y848D02*
X786Y848D01*
X0Y847D02*
X7Y847D01*
X779Y847D02*
X786Y847D01*
X0Y846D02*
X7Y846D01*
X366Y846D02*
X368Y846D01*
X779Y846D02*
X786Y846D01*
X0Y845D02*
X7Y845D01*
X365Y845D02*
X368Y845D01*
X779Y845D02*
X786Y845D01*
X0Y844D02*
X7Y844D01*
X365Y844D02*
X368Y844D01*
X779Y844D02*
X786Y844D01*
X0Y843D02*
X7Y843D01*
X365Y843D02*
X368Y843D01*
X779Y843D02*
X786Y843D01*
X0Y842D02*
X7Y842D01*
X365Y842D02*
X368Y842D01*
X779Y842D02*
X786Y842D01*
X0Y841D02*
X7Y841D01*
X365Y841D02*
X368Y841D01*
X779Y841D02*
X786Y841D01*
X0Y840D02*
X7Y840D01*
X365Y840D02*
X368Y840D01*
X779Y840D02*
X786Y840D01*
X0Y839D02*
X7Y839D01*
X365Y839D02*
X368Y839D01*
X779Y839D02*
X786Y839D01*
X0Y838D02*
X7Y838D01*
X365Y838D02*
X368Y838D01*
X779Y838D02*
X786Y838D01*
X0Y837D02*
X7Y837D01*
X365Y837D02*
X368Y837D01*
X779Y837D02*
X786Y837D01*
X0Y836D02*
X7Y836D01*
X40Y836D02*
X44Y836D01*
X365Y836D02*
X368Y836D01*
X779Y836D02*
X786Y836D01*
X0Y835D02*
X7Y835D01*
X39Y835D02*
X45Y835D01*
X365Y835D02*
X368Y835D01*
X779Y835D02*
X786Y835D01*
X0Y834D02*
X7Y834D01*
X38Y834D02*
X45Y834D01*
X365Y834D02*
X368Y834D01*
X779Y834D02*
X786Y834D01*
X0Y833D02*
X7Y833D01*
X38Y833D02*
X45Y833D01*
X365Y833D02*
X368Y833D01*
X779Y833D02*
X786Y833D01*
X0Y832D02*
X7Y832D01*
X38Y832D02*
X45Y832D01*
X365Y832D02*
X368Y832D01*
X779Y832D02*
X786Y832D01*
X0Y831D02*
X7Y831D01*
X38Y831D02*
X45Y831D01*
X365Y831D02*
X368Y831D01*
X779Y831D02*
X786Y831D01*
X0Y830D02*
X7Y830D01*
X38Y830D02*
X45Y830D01*
X338Y830D02*
X368Y830D01*
X779Y830D02*
X786Y830D01*
X0Y829D02*
X7Y829D01*
X39Y829D02*
X45Y829D01*
X337Y829D02*
X368Y829D01*
X779Y829D02*
X786Y829D01*
X0Y828D02*
X7Y828D01*
X40Y828D02*
X44Y828D01*
X337Y828D02*
X368Y828D01*
X779Y828D02*
X786Y828D01*
X0Y827D02*
X7Y827D01*
X338Y827D02*
X368Y827D01*
X779Y827D02*
X786Y827D01*
X0Y826D02*
X7Y826D01*
X413Y826D02*
X613Y826D01*
X779Y826D02*
X786Y826D01*
X0Y825D02*
X7Y825D01*
X413Y825D02*
X613Y825D01*
X779Y825D02*
X786Y825D01*
X0Y824D02*
X7Y824D01*
X413Y824D02*
X613Y824D01*
X779Y824D02*
X786Y824D01*
X0Y823D02*
X7Y823D01*
X413Y823D02*
X415Y823D01*
X489Y823D02*
X537Y823D01*
X611Y823D02*
X613Y823D01*
X779Y823D02*
X786Y823D01*
X0Y822D02*
X7Y822D01*
X413Y822D02*
X415Y822D01*
X611Y822D02*
X613Y822D01*
X779Y822D02*
X786Y822D01*
X0Y821D02*
X7Y821D01*
X413Y821D02*
X415Y821D01*
X611Y821D02*
X613Y821D01*
X779Y821D02*
X786Y821D01*
X0Y820D02*
X7Y820D01*
X413Y820D02*
X415Y820D01*
X611Y820D02*
X613Y820D01*
X779Y820D02*
X786Y820D01*
X0Y819D02*
X7Y819D01*
X413Y819D02*
X415Y819D01*
X611Y819D02*
X613Y819D01*
X779Y819D02*
X786Y819D01*
X0Y818D02*
X7Y818D01*
X413Y818D02*
X415Y818D01*
X611Y818D02*
X613Y818D01*
X779Y818D02*
X786Y818D01*
X0Y817D02*
X7Y817D01*
X413Y817D02*
X415Y817D01*
X611Y817D02*
X613Y817D01*
X779Y817D02*
X786Y817D01*
X0Y816D02*
X7Y816D01*
X337Y816D02*
X340Y816D01*
X413Y816D02*
X415Y816D01*
X611Y816D02*
X613Y816D01*
X779Y816D02*
X786Y816D01*
X0Y815D02*
X7Y815D01*
X337Y815D02*
X340Y815D01*
X413Y815D02*
X415Y815D01*
X611Y815D02*
X613Y815D01*
X779Y815D02*
X786Y815D01*
X0Y814D02*
X7Y814D01*
X337Y814D02*
X340Y814D01*
X413Y814D02*
X415Y814D01*
X611Y814D02*
X613Y814D01*
X779Y814D02*
X786Y814D01*
X0Y813D02*
X7Y813D01*
X337Y813D02*
X340Y813D01*
X413Y813D02*
X415Y813D01*
X611Y813D02*
X613Y813D01*
X779Y813D02*
X786Y813D01*
X0Y812D02*
X7Y812D01*
X45Y812D02*
X47Y812D01*
X337Y812D02*
X340Y812D01*
X348Y812D02*
X350Y812D01*
X413Y812D02*
X415Y812D01*
X611Y812D02*
X613Y812D01*
X779Y812D02*
X786Y812D01*
X0Y811D02*
X7Y811D01*
X44Y811D02*
X48Y811D01*
X337Y811D02*
X340Y811D01*
X348Y811D02*
X351Y811D01*
X413Y811D02*
X415Y811D01*
X611Y811D02*
X613Y811D01*
X779Y811D02*
X786Y811D01*
X0Y810D02*
X7Y810D01*
X29Y810D02*
X30Y810D01*
X44Y810D02*
X49Y810D01*
X337Y810D02*
X340Y810D01*
X348Y810D02*
X351Y810D01*
X413Y810D02*
X415Y810D01*
X611Y810D02*
X613Y810D01*
X779Y810D02*
X786Y810D01*
X0Y809D02*
X7Y809D01*
X28Y809D02*
X31Y809D01*
X44Y809D02*
X50Y809D01*
X337Y809D02*
X340Y809D01*
X348Y809D02*
X351Y809D01*
X413Y809D02*
X415Y809D01*
X611Y809D02*
X613Y809D01*
X779Y809D02*
X786Y809D01*
X0Y808D02*
X7Y808D01*
X28Y808D02*
X31Y808D01*
X46Y808D02*
X50Y808D01*
X337Y808D02*
X340Y808D01*
X348Y808D02*
X351Y808D01*
X413Y808D02*
X415Y808D01*
X611Y808D02*
X613Y808D01*
X779Y808D02*
X786Y808D01*
X0Y807D02*
X7Y807D01*
X28Y807D02*
X31Y807D01*
X47Y807D02*
X50Y807D01*
X337Y807D02*
X340Y807D01*
X348Y807D02*
X351Y807D01*
X413Y807D02*
X415Y807D01*
X611Y807D02*
X613Y807D01*
X779Y807D02*
X786Y807D01*
X0Y806D02*
X7Y806D01*
X28Y806D02*
X31Y806D01*
X47Y806D02*
X50Y806D01*
X337Y806D02*
X340Y806D01*
X348Y806D02*
X351Y806D01*
X413Y806D02*
X415Y806D01*
X611Y806D02*
X613Y806D01*
X779Y806D02*
X786Y806D01*
X0Y805D02*
X7Y805D01*
X28Y805D02*
X31Y805D01*
X47Y805D02*
X51Y805D01*
X337Y805D02*
X340Y805D01*
X348Y805D02*
X351Y805D01*
X413Y805D02*
X415Y805D01*
X611Y805D02*
X613Y805D01*
X779Y805D02*
X786Y805D01*
X0Y804D02*
X7Y804D01*
X28Y804D02*
X31Y804D01*
X47Y804D02*
X51Y804D01*
X337Y804D02*
X340Y804D01*
X348Y804D02*
X351Y804D01*
X413Y804D02*
X415Y804D01*
X611Y804D02*
X613Y804D01*
X779Y804D02*
X786Y804D01*
X0Y803D02*
X7Y803D01*
X28Y803D02*
X31Y803D01*
X47Y803D02*
X51Y803D01*
X337Y803D02*
X340Y803D01*
X348Y803D02*
X351Y803D01*
X413Y803D02*
X415Y803D01*
X611Y803D02*
X613Y803D01*
X779Y803D02*
X786Y803D01*
X0Y802D02*
X7Y802D01*
X28Y802D02*
X31Y802D01*
X47Y802D02*
X50Y802D01*
X337Y802D02*
X340Y802D01*
X348Y802D02*
X351Y802D01*
X413Y802D02*
X415Y802D01*
X611Y802D02*
X613Y802D01*
X779Y802D02*
X786Y802D01*
X0Y801D02*
X7Y801D01*
X28Y801D02*
X31Y801D01*
X47Y801D02*
X50Y801D01*
X337Y801D02*
X340Y801D01*
X348Y801D02*
X351Y801D01*
X413Y801D02*
X415Y801D01*
X611Y801D02*
X613Y801D01*
X779Y801D02*
X786Y801D01*
X0Y800D02*
X7Y800D01*
X22Y800D02*
X50Y800D01*
X337Y800D02*
X368Y800D01*
X413Y800D02*
X415Y800D01*
X611Y800D02*
X613Y800D01*
X779Y800D02*
X786Y800D01*
X0Y799D02*
X7Y799D01*
X21Y799D02*
X50Y799D01*
X337Y799D02*
X368Y799D01*
X413Y799D02*
X415Y799D01*
X611Y799D02*
X613Y799D01*
X779Y799D02*
X786Y799D01*
X0Y798D02*
X7Y798D01*
X21Y798D02*
X49Y798D01*
X337Y798D02*
X368Y798D01*
X413Y798D02*
X415Y798D01*
X611Y798D02*
X613Y798D01*
X779Y798D02*
X786Y798D01*
X0Y797D02*
X7Y797D01*
X21Y797D02*
X48Y797D01*
X337Y797D02*
X368Y797D01*
X413Y797D02*
X415Y797D01*
X611Y797D02*
X613Y797D01*
X779Y797D02*
X786Y797D01*
X0Y796D02*
X7Y796D01*
X22Y796D02*
X45Y796D01*
X413Y796D02*
X415Y796D01*
X611Y796D02*
X613Y796D01*
X779Y796D02*
X786Y796D01*
X0Y795D02*
X7Y795D01*
X28Y795D02*
X31Y795D01*
X413Y795D02*
X415Y795D01*
X611Y795D02*
X613Y795D01*
X779Y795D02*
X786Y795D01*
X0Y794D02*
X7Y794D01*
X28Y794D02*
X31Y794D01*
X413Y794D02*
X415Y794D01*
X611Y794D02*
X613Y794D01*
X779Y794D02*
X786Y794D01*
X0Y793D02*
X7Y793D01*
X28Y793D02*
X31Y793D01*
X413Y793D02*
X415Y793D01*
X611Y793D02*
X613Y793D01*
X779Y793D02*
X786Y793D01*
X0Y792D02*
X7Y792D01*
X29Y792D02*
X30Y792D01*
X413Y792D02*
X415Y792D01*
X611Y792D02*
X613Y792D01*
X779Y792D02*
X786Y792D01*
X0Y791D02*
X7Y791D01*
X413Y791D02*
X415Y791D01*
X611Y791D02*
X613Y791D01*
X779Y791D02*
X786Y791D01*
X0Y790D02*
X7Y790D01*
X413Y790D02*
X415Y790D01*
X611Y790D02*
X613Y790D01*
X779Y790D02*
X786Y790D01*
X0Y789D02*
X7Y789D01*
X413Y789D02*
X415Y789D01*
X611Y789D02*
X613Y789D01*
X779Y789D02*
X786Y789D01*
X0Y788D02*
X7Y788D01*
X413Y788D02*
X415Y788D01*
X611Y788D02*
X613Y788D01*
X779Y788D02*
X786Y788D01*
X0Y787D02*
X7Y787D01*
X413Y787D02*
X415Y787D01*
X611Y787D02*
X613Y787D01*
X779Y787D02*
X786Y787D01*
X0Y786D02*
X7Y786D01*
X413Y786D02*
X415Y786D01*
X611Y786D02*
X613Y786D01*
X779Y786D02*
X786Y786D01*
X0Y785D02*
X7Y785D01*
X413Y785D02*
X415Y785D01*
X611Y785D02*
X613Y785D01*
X779Y785D02*
X786Y785D01*
X0Y784D02*
X7Y784D01*
X413Y784D02*
X415Y784D01*
X611Y784D02*
X613Y784D01*
X779Y784D02*
X786Y784D01*
X0Y783D02*
X7Y783D01*
X413Y783D02*
X415Y783D01*
X611Y783D02*
X613Y783D01*
X779Y783D02*
X786Y783D01*
X0Y782D02*
X7Y782D01*
X35Y782D02*
X50Y782D01*
X413Y782D02*
X415Y782D01*
X611Y782D02*
X613Y782D01*
X779Y782D02*
X786Y782D01*
X0Y781D02*
X7Y781D01*
X31Y781D02*
X50Y781D01*
X413Y781D02*
X415Y781D01*
X611Y781D02*
X613Y781D01*
X779Y781D02*
X786Y781D01*
X0Y780D02*
X7Y780D01*
X30Y780D02*
X50Y780D01*
X357Y780D02*
X363Y780D01*
X413Y780D02*
X415Y780D01*
X611Y780D02*
X613Y780D01*
X779Y780D02*
X786Y780D01*
X0Y779D02*
X7Y779D01*
X29Y779D02*
X50Y779D01*
X356Y779D02*
X363Y779D01*
X413Y779D02*
X415Y779D01*
X611Y779D02*
X613Y779D01*
X779Y779D02*
X786Y779D01*
X0Y778D02*
X7Y778D01*
X28Y778D02*
X40Y778D01*
X356Y778D02*
X363Y778D01*
X413Y778D02*
X415Y778D01*
X611Y778D02*
X613Y778D01*
X779Y778D02*
X786Y778D01*
X0Y777D02*
X7Y777D01*
X28Y777D02*
X32Y777D01*
X356Y777D02*
X363Y777D01*
X413Y777D02*
X415Y777D01*
X611Y777D02*
X613Y777D01*
X779Y777D02*
X786Y777D01*
X0Y776D02*
X7Y776D01*
X28Y776D02*
X31Y776D01*
X356Y776D02*
X363Y776D01*
X413Y776D02*
X415Y776D01*
X611Y776D02*
X613Y776D01*
X779Y776D02*
X786Y776D01*
X0Y775D02*
X7Y775D01*
X28Y775D02*
X31Y775D01*
X356Y775D02*
X363Y775D01*
X413Y775D02*
X415Y775D01*
X611Y775D02*
X613Y775D01*
X779Y775D02*
X786Y775D01*
X0Y774D02*
X7Y774D01*
X28Y774D02*
X31Y774D01*
X357Y774D02*
X363Y774D01*
X413Y774D02*
X415Y774D01*
X611Y774D02*
X613Y774D01*
X779Y774D02*
X786Y774D01*
X0Y773D02*
X7Y773D01*
X28Y773D02*
X31Y773D01*
X357Y773D02*
X362Y773D01*
X413Y773D02*
X415Y773D01*
X611Y773D02*
X613Y773D01*
X779Y773D02*
X786Y773D01*
X0Y772D02*
X7Y772D01*
X28Y772D02*
X32Y772D01*
X413Y772D02*
X415Y772D01*
X611Y772D02*
X613Y772D01*
X779Y772D02*
X786Y772D01*
X0Y771D02*
X7Y771D01*
X28Y771D02*
X32Y771D01*
X413Y771D02*
X415Y771D01*
X611Y771D02*
X613Y771D01*
X779Y771D02*
X786Y771D01*
X0Y770D02*
X7Y770D01*
X29Y770D02*
X33Y770D01*
X413Y770D02*
X415Y770D01*
X611Y770D02*
X613Y770D01*
X779Y770D02*
X786Y770D01*
X0Y769D02*
X7Y769D01*
X29Y769D02*
X33Y769D01*
X413Y769D02*
X415Y769D01*
X611Y769D02*
X613Y769D01*
X779Y769D02*
X786Y769D01*
X0Y768D02*
X7Y768D01*
X30Y768D02*
X34Y768D01*
X413Y768D02*
X415Y768D01*
X611Y768D02*
X613Y768D01*
X779Y768D02*
X786Y768D01*
X0Y767D02*
X7Y767D01*
X31Y767D02*
X35Y767D01*
X413Y767D02*
X415Y767D01*
X611Y767D02*
X613Y767D01*
X779Y767D02*
X786Y767D01*
X0Y766D02*
X7Y766D01*
X31Y766D02*
X36Y766D01*
X413Y766D02*
X415Y766D01*
X611Y766D02*
X613Y766D01*
X779Y766D02*
X786Y766D01*
X0Y765D02*
X7Y765D01*
X28Y765D02*
X50Y765D01*
X413Y765D02*
X415Y765D01*
X611Y765D02*
X613Y765D01*
X779Y765D02*
X786Y765D01*
X0Y764D02*
X7Y764D01*
X28Y764D02*
X50Y764D01*
X413Y764D02*
X415Y764D01*
X611Y764D02*
X613Y764D01*
X779Y764D02*
X786Y764D01*
X0Y763D02*
X7Y763D01*
X28Y763D02*
X50Y763D01*
X413Y763D02*
X415Y763D01*
X611Y763D02*
X613Y763D01*
X779Y763D02*
X786Y763D01*
X0Y762D02*
X7Y762D01*
X29Y762D02*
X49Y762D01*
X413Y762D02*
X415Y762D01*
X611Y762D02*
X613Y762D01*
X779Y762D02*
X786Y762D01*
X0Y761D02*
X7Y761D01*
X413Y761D02*
X415Y761D01*
X611Y761D02*
X613Y761D01*
X779Y761D02*
X786Y761D01*
X0Y760D02*
X7Y760D01*
X413Y760D02*
X415Y760D01*
X611Y760D02*
X613Y760D01*
X779Y760D02*
X786Y760D01*
X0Y759D02*
X7Y759D01*
X413Y759D02*
X415Y759D01*
X611Y759D02*
X613Y759D01*
X779Y759D02*
X786Y759D01*
X0Y758D02*
X7Y758D01*
X413Y758D02*
X415Y758D01*
X611Y758D02*
X613Y758D01*
X779Y758D02*
X786Y758D01*
X0Y757D02*
X7Y757D01*
X348Y757D02*
X367Y757D01*
X413Y757D02*
X415Y757D01*
X611Y757D02*
X613Y757D01*
X779Y757D02*
X786Y757D01*
X0Y756D02*
X7Y756D01*
X346Y756D02*
X368Y756D01*
X413Y756D02*
X415Y756D01*
X611Y756D02*
X613Y756D01*
X779Y756D02*
X786Y756D01*
X0Y755D02*
X7Y755D01*
X346Y755D02*
X368Y755D01*
X413Y755D02*
X415Y755D01*
X611Y755D02*
X613Y755D01*
X779Y755D02*
X786Y755D01*
X0Y754D02*
X7Y754D01*
X346Y754D02*
X368Y754D01*
X413Y754D02*
X415Y754D01*
X611Y754D02*
X613Y754D01*
X779Y754D02*
X786Y754D01*
X0Y753D02*
X7Y753D01*
X347Y753D02*
X367Y753D01*
X413Y753D02*
X415Y753D01*
X611Y753D02*
X613Y753D01*
X779Y753D02*
X786Y753D01*
X0Y752D02*
X7Y752D01*
X47Y752D02*
X50Y752D01*
X361Y752D02*
X365Y752D01*
X413Y752D02*
X415Y752D01*
X611Y752D02*
X613Y752D01*
X779Y752D02*
X786Y752D01*
X0Y751D02*
X7Y751D01*
X44Y751D02*
X50Y751D01*
X362Y751D02*
X366Y751D01*
X413Y751D02*
X415Y751D01*
X611Y751D02*
X613Y751D01*
X779Y751D02*
X786Y751D01*
X0Y750D02*
X7Y750D01*
X41Y750D02*
X50Y750D01*
X363Y750D02*
X367Y750D01*
X413Y750D02*
X415Y750D01*
X611Y750D02*
X613Y750D01*
X779Y750D02*
X786Y750D01*
X0Y749D02*
X7Y749D01*
X37Y749D02*
X50Y749D01*
X363Y749D02*
X367Y749D01*
X413Y749D02*
X415Y749D01*
X611Y749D02*
X613Y749D01*
X779Y749D02*
X786Y749D01*
X0Y748D02*
X7Y748D01*
X34Y748D02*
X48Y748D01*
X364Y748D02*
X368Y748D01*
X413Y748D02*
X415Y748D01*
X611Y748D02*
X613Y748D01*
X779Y748D02*
X786Y748D01*
X0Y747D02*
X7Y747D01*
X30Y747D02*
X44Y747D01*
X365Y747D02*
X368Y747D01*
X413Y747D02*
X415Y747D01*
X611Y747D02*
X613Y747D01*
X779Y747D02*
X786Y747D01*
X0Y746D02*
X7Y746D01*
X27Y746D02*
X43Y746D01*
X365Y746D02*
X368Y746D01*
X413Y746D02*
X415Y746D01*
X611Y746D02*
X613Y746D01*
X779Y746D02*
X786Y746D01*
X0Y745D02*
X7Y745D01*
X23Y745D02*
X37Y745D01*
X40Y745D02*
X43Y745D01*
X365Y745D02*
X368Y745D01*
X413Y745D02*
X415Y745D01*
X611Y745D02*
X613Y745D01*
X779Y745D02*
X786Y745D01*
X0Y744D02*
X7Y744D01*
X20Y744D02*
X34Y744D01*
X40Y744D02*
X43Y744D01*
X365Y744D02*
X368Y744D01*
X413Y744D02*
X415Y744D01*
X611Y744D02*
X613Y744D01*
X779Y744D02*
X786Y744D01*
X0Y743D02*
X7Y743D01*
X19Y743D02*
X31Y743D01*
X40Y743D02*
X43Y743D01*
X365Y743D02*
X368Y743D01*
X413Y743D02*
X415Y743D01*
X611Y743D02*
X613Y743D01*
X779Y743D02*
X786Y743D01*
X0Y742D02*
X7Y742D01*
X19Y742D02*
X28Y742D01*
X40Y742D02*
X43Y742D01*
X365Y742D02*
X368Y742D01*
X413Y742D02*
X415Y742D01*
X611Y742D02*
X613Y742D01*
X779Y742D02*
X786Y742D01*
X0Y741D02*
X7Y741D01*
X19Y741D02*
X31Y741D01*
X40Y741D02*
X43Y741D01*
X362Y741D02*
X368Y741D01*
X413Y741D02*
X415Y741D01*
X611Y741D02*
X613Y741D01*
X779Y741D02*
X786Y741D01*
X0Y740D02*
X7Y740D01*
X21Y740D02*
X35Y740D01*
X40Y740D02*
X43Y740D01*
X347Y740D02*
X368Y740D01*
X413Y740D02*
X415Y740D01*
X489Y740D02*
X537Y740D01*
X611Y740D02*
X613Y740D01*
X779Y740D02*
X786Y740D01*
X0Y739D02*
X7Y739D01*
X24Y739D02*
X38Y739D01*
X40Y739D02*
X43Y739D01*
X346Y739D02*
X367Y739D01*
X413Y739D02*
X613Y739D01*
X779Y739D02*
X786Y739D01*
X0Y738D02*
X7Y738D01*
X28Y738D02*
X43Y738D01*
X346Y738D02*
X366Y738D01*
X413Y738D02*
X613Y738D01*
X779Y738D02*
X786Y738D01*
X0Y737D02*
X7Y737D01*
X31Y737D02*
X45Y737D01*
X346Y737D02*
X364Y737D01*
X413Y737D02*
X613Y737D01*
X779Y737D02*
X786Y737D01*
X0Y736D02*
X7Y736D01*
X35Y736D02*
X49Y736D01*
X779Y736D02*
X786Y736D01*
X0Y735D02*
X7Y735D01*
X38Y735D02*
X50Y735D01*
X779Y735D02*
X786Y735D01*
X0Y734D02*
X7Y734D01*
X41Y734D02*
X50Y734D01*
X779Y734D02*
X786Y734D01*
X0Y733D02*
X7Y733D01*
X45Y733D02*
X50Y733D01*
X779Y733D02*
X786Y733D01*
X0Y732D02*
X7Y732D01*
X48Y732D02*
X49Y732D01*
X779Y732D02*
X786Y732D01*
X0Y731D02*
X7Y731D01*
X779Y731D02*
X786Y731D01*
X0Y730D02*
X7Y730D01*
X779Y730D02*
X786Y730D01*
X0Y729D02*
X7Y729D01*
X779Y729D02*
X786Y729D01*
X0Y728D02*
X7Y728D01*
X779Y728D02*
X786Y728D01*
X0Y727D02*
X7Y727D01*
X779Y727D02*
X786Y727D01*
X0Y726D02*
X7Y726D01*
X779Y726D02*
X786Y726D01*
X0Y725D02*
X7Y725D01*
X779Y725D02*
X786Y725D01*
X0Y724D02*
X7Y724D01*
X779Y724D02*
X786Y724D01*
X0Y723D02*
X7Y723D01*
X779Y723D02*
X786Y723D01*
X0Y722D02*
X7Y722D01*
X779Y722D02*
X786Y722D01*
X0Y721D02*
X7Y721D01*
X779Y721D02*
X786Y721D01*
X0Y720D02*
X7Y720D01*
X779Y720D02*
X786Y720D01*
X0Y719D02*
X7Y719D01*
X779Y719D02*
X786Y719D01*
X0Y718D02*
X7Y718D01*
X779Y718D02*
X786Y718D01*
X0Y717D02*
X7Y717D01*
X779Y717D02*
X786Y717D01*
X0Y716D02*
X7Y716D01*
X779Y716D02*
X786Y716D01*
X0Y715D02*
X7Y715D01*
X779Y715D02*
X786Y715D01*
X0Y714D02*
X7Y714D01*
X779Y714D02*
X786Y714D01*
X0Y713D02*
X7Y713D01*
X779Y713D02*
X786Y713D01*
X0Y712D02*
X7Y712D01*
X779Y712D02*
X786Y712D01*
X0Y711D02*
X7Y711D01*
X779Y711D02*
X786Y711D01*
X0Y710D02*
X7Y710D01*
X779Y710D02*
X786Y710D01*
X0Y709D02*
X7Y709D01*
X779Y709D02*
X786Y709D01*
X0Y708D02*
X7Y708D01*
X779Y708D02*
X786Y708D01*
X0Y707D02*
X7Y707D01*
X779Y707D02*
X786Y707D01*
X0Y706D02*
X7Y706D01*
X779Y706D02*
X786Y706D01*
X0Y705D02*
X7Y705D01*
X779Y705D02*
X786Y705D01*
X0Y704D02*
X7Y704D01*
X779Y704D02*
X786Y704D01*
X0Y703D02*
X7Y703D01*
X779Y703D02*
X786Y703D01*
X0Y702D02*
X7Y702D01*
X779Y702D02*
X786Y702D01*
X0Y701D02*
X7Y701D01*
X779Y701D02*
X786Y701D01*
X0Y700D02*
X7Y700D01*
X779Y700D02*
X786Y700D01*
X0Y699D02*
X7Y699D01*
X779Y699D02*
X786Y699D01*
X0Y698D02*
X7Y698D01*
X779Y698D02*
X786Y698D01*
X0Y697D02*
X7Y697D01*
X779Y697D02*
X786Y697D01*
X0Y696D02*
X7Y696D01*
X779Y696D02*
X786Y696D01*
X0Y695D02*
X7Y695D01*
X779Y695D02*
X786Y695D01*
X0Y694D02*
X7Y694D01*
X779Y694D02*
X786Y694D01*
X0Y693D02*
X7Y693D01*
X779Y693D02*
X786Y693D01*
X0Y692D02*
X7Y692D01*
X779Y692D02*
X786Y692D01*
X0Y691D02*
X7Y691D01*
X779Y691D02*
X786Y691D01*
X0Y690D02*
X7Y690D01*
X779Y690D02*
X786Y690D01*
X0Y689D02*
X7Y689D01*
X779Y689D02*
X786Y689D01*
X0Y688D02*
X7Y688D01*
X779Y688D02*
X786Y688D01*
X0Y687D02*
X7Y687D01*
X779Y687D02*
X786Y687D01*
X0Y686D02*
X7Y686D01*
X779Y686D02*
X786Y686D01*
X0Y685D02*
X7Y685D01*
X779Y685D02*
X786Y685D01*
X0Y684D02*
X7Y684D01*
X779Y684D02*
X786Y684D01*
X0Y683D02*
X7Y683D01*
X779Y683D02*
X786Y683D01*
X0Y682D02*
X7Y682D01*
X779Y682D02*
X786Y682D01*
X0Y681D02*
X7Y681D01*
X779Y681D02*
X786Y681D01*
X0Y680D02*
X7Y680D01*
X779Y680D02*
X786Y680D01*
X0Y679D02*
X7Y679D01*
X779Y679D02*
X786Y679D01*
X0Y678D02*
X7Y678D01*
X779Y678D02*
X786Y678D01*
X0Y677D02*
X7Y677D01*
X779Y677D02*
X786Y677D01*
X0Y676D02*
X7Y676D01*
X779Y676D02*
X786Y676D01*
X0Y675D02*
X7Y675D01*
X779Y675D02*
X786Y675D01*
X0Y674D02*
X7Y674D01*
X779Y674D02*
X786Y674D01*
X0Y673D02*
X7Y673D01*
X779Y673D02*
X786Y673D01*
X0Y672D02*
X7Y672D01*
X779Y672D02*
X786Y672D01*
X0Y671D02*
X7Y671D01*
X779Y671D02*
X786Y671D01*
X0Y670D02*
X7Y670D01*
X779Y670D02*
X786Y670D01*
X0Y669D02*
X7Y669D01*
X779Y669D02*
X786Y669D01*
X0Y668D02*
X7Y668D01*
X779Y668D02*
X786Y668D01*
X0Y667D02*
X7Y667D01*
X779Y667D02*
X786Y667D01*
X0Y666D02*
X7Y666D01*
X779Y666D02*
X786Y666D01*
X0Y665D02*
X7Y665D01*
X779Y665D02*
X786Y665D01*
X0Y664D02*
X7Y664D01*
X779Y664D02*
X786Y664D01*
X0Y663D02*
X7Y663D01*
X779Y663D02*
X786Y663D01*
X0Y662D02*
X7Y662D01*
X779Y662D02*
X786Y662D01*
X0Y661D02*
X7Y661D01*
X779Y661D02*
X786Y661D01*
X0Y660D02*
X7Y660D01*
X779Y660D02*
X786Y660D01*
X0Y659D02*
X7Y659D01*
X779Y659D02*
X786Y659D01*
X0Y658D02*
X7Y658D01*
X558Y658D02*
X569Y658D01*
X581Y658D02*
X586Y658D01*
X599Y658D02*
X601Y658D01*
X614Y658D02*
X626Y658D01*
X779Y658D02*
X786Y658D01*
X0Y657D02*
X7Y657D01*
X557Y657D02*
X569Y657D01*
X581Y657D02*
X586Y657D01*
X599Y657D02*
X602Y657D01*
X613Y657D02*
X627Y657D01*
X779Y657D02*
X786Y657D01*
X0Y656D02*
X7Y656D01*
X171Y656D02*
X172Y656D01*
X556Y656D02*
X569Y656D01*
X581Y656D02*
X587Y656D01*
X598Y656D02*
X602Y656D01*
X613Y656D02*
X628Y656D01*
X779Y656D02*
X786Y656D01*
X0Y655D02*
X7Y655D01*
X170Y655D02*
X173Y655D01*
X555Y655D02*
X569Y655D01*
X581Y655D02*
X587Y655D01*
X598Y655D02*
X602Y655D01*
X614Y655D02*
X629Y655D01*
X779Y655D02*
X786Y655D01*
X0Y654D02*
X7Y654D01*
X170Y654D02*
X173Y654D01*
X232Y654D02*
X233Y654D01*
X554Y654D02*
X560Y654D01*
X581Y654D02*
X588Y654D01*
X598Y654D02*
X602Y654D01*
X618Y654D02*
X622Y654D01*
X625Y654D02*
X630Y654D01*
X779Y654D02*
X786Y654D01*
X0Y653D02*
X7Y653D01*
X169Y653D02*
X174Y653D01*
X231Y653D02*
X234Y653D01*
X554Y653D02*
X558Y653D01*
X581Y653D02*
X588Y653D01*
X598Y653D02*
X602Y653D01*
X618Y653D02*
X621Y653D01*
X626Y653D02*
X630Y653D01*
X779Y653D02*
X786Y653D01*
X0Y652D02*
X7Y652D01*
X169Y652D02*
X174Y652D01*
X231Y652D02*
X234Y652D01*
X553Y652D02*
X558Y652D01*
X581Y652D02*
X589Y652D01*
X598Y652D02*
X602Y652D01*
X618Y652D02*
X621Y652D01*
X626Y652D02*
X631Y652D01*
X779Y652D02*
X786Y652D01*
X0Y651D02*
X7Y651D01*
X169Y651D02*
X174Y651D01*
X231Y651D02*
X234Y651D01*
X552Y651D02*
X557Y651D01*
X581Y651D02*
X589Y651D01*
X598Y651D02*
X602Y651D01*
X618Y651D02*
X621Y651D01*
X627Y651D02*
X631Y651D01*
X779Y651D02*
X786Y651D01*
X0Y650D02*
X7Y650D01*
X168Y650D02*
X175Y650D01*
X231Y650D02*
X234Y650D01*
X551Y650D02*
X556Y650D01*
X581Y650D02*
X589Y650D01*
X598Y650D02*
X602Y650D01*
X618Y650D02*
X621Y650D01*
X627Y650D02*
X632Y650D01*
X779Y650D02*
X786Y650D01*
X0Y649D02*
X7Y649D01*
X168Y649D02*
X175Y649D01*
X231Y649D02*
X234Y649D01*
X550Y649D02*
X555Y649D01*
X581Y649D02*
X584Y649D01*
X586Y649D02*
X590Y649D01*
X598Y649D02*
X602Y649D01*
X618Y649D02*
X621Y649D01*
X628Y649D02*
X632Y649D01*
X779Y649D02*
X786Y649D01*
X0Y648D02*
X7Y648D01*
X168Y648D02*
X175Y648D01*
X231Y648D02*
X234Y648D01*
X550Y648D02*
X554Y648D01*
X581Y648D02*
X584Y648D01*
X586Y648D02*
X590Y648D01*
X598Y648D02*
X602Y648D01*
X618Y648D02*
X621Y648D01*
X628Y648D02*
X633Y648D01*
X779Y648D02*
X786Y648D01*
X0Y647D02*
X7Y647D01*
X168Y647D02*
X175Y647D01*
X230Y647D02*
X234Y647D01*
X549Y647D02*
X554Y647D01*
X581Y647D02*
X584Y647D01*
X587Y647D02*
X591Y647D01*
X598Y647D02*
X602Y647D01*
X618Y647D02*
X621Y647D01*
X629Y647D02*
X633Y647D01*
X779Y647D02*
X786Y647D01*
X0Y646D02*
X7Y646D01*
X167Y646D02*
X176Y646D01*
X194Y646D02*
X196Y646D01*
X203Y646D02*
X211Y646D01*
X227Y646D02*
X245Y646D01*
X549Y646D02*
X553Y646D01*
X581Y646D02*
X584Y646D01*
X587Y646D02*
X591Y646D01*
X598Y646D02*
X602Y646D01*
X618Y646D02*
X621Y646D01*
X629Y646D02*
X634Y646D01*
X779Y646D02*
X786Y646D01*
X0Y645D02*
X7Y645D01*
X167Y645D02*
X176Y645D01*
X194Y645D02*
X197Y645D01*
X201Y645D02*
X212Y645D01*
X226Y645D02*
X245Y645D01*
X548Y645D02*
X552Y645D01*
X581Y645D02*
X584Y645D01*
X588Y645D02*
X592Y645D01*
X598Y645D02*
X602Y645D01*
X618Y645D02*
X621Y645D01*
X630Y645D02*
X634Y645D01*
X779Y645D02*
X786Y645D01*
X0Y644D02*
X7Y644D01*
X167Y644D02*
X170Y644D01*
X173Y644D02*
X176Y644D01*
X193Y644D02*
X197Y644D01*
X200Y644D02*
X213Y644D01*
X226Y644D02*
X245Y644D01*
X548Y644D02*
X552Y644D01*
X581Y644D02*
X584Y644D01*
X588Y644D02*
X592Y644D01*
X598Y644D02*
X602Y644D01*
X618Y644D02*
X621Y644D01*
X630Y644D02*
X634Y644D01*
X779Y644D02*
X786Y644D01*
X0Y643D02*
X7Y643D01*
X166Y643D02*
X170Y643D01*
X173Y643D02*
X177Y643D01*
X193Y643D02*
X214Y643D01*
X227Y643D02*
X245Y643D01*
X548Y643D02*
X552Y643D01*
X581Y643D02*
X584Y643D01*
X589Y643D02*
X593Y643D01*
X598Y643D02*
X602Y643D01*
X618Y643D02*
X621Y643D01*
X631Y643D02*
X635Y643D01*
X779Y643D02*
X786Y643D01*
X0Y642D02*
X7Y642D01*
X166Y642D02*
X170Y642D01*
X173Y642D02*
X177Y642D01*
X193Y642D02*
X204Y642D01*
X209Y642D02*
X214Y642D01*
X230Y642D02*
X234Y642D01*
X548Y642D02*
X552Y642D01*
X581Y642D02*
X584Y642D01*
X589Y642D02*
X593Y642D01*
X598Y642D02*
X602Y642D01*
X618Y642D02*
X621Y642D01*
X631Y642D02*
X635Y642D01*
X779Y642D02*
X786Y642D01*
X0Y641D02*
X7Y641D01*
X166Y641D02*
X170Y641D01*
X173Y641D02*
X177Y641D01*
X193Y641D02*
X202Y641D01*
X210Y641D02*
X214Y641D01*
X231Y641D02*
X234Y641D01*
X548Y641D02*
X552Y641D01*
X581Y641D02*
X584Y641D01*
X589Y641D02*
X593Y641D01*
X598Y641D02*
X602Y641D01*
X618Y641D02*
X621Y641D01*
X631Y641D02*
X635Y641D01*
X779Y641D02*
X786Y641D01*
X0Y640D02*
X7Y640D01*
X165Y640D02*
X169Y640D01*
X174Y640D02*
X177Y640D01*
X193Y640D02*
X201Y640D01*
X211Y640D02*
X214Y640D01*
X231Y640D02*
X234Y640D01*
X548Y640D02*
X552Y640D01*
X581Y640D02*
X584Y640D01*
X590Y640D02*
X594Y640D01*
X598Y640D02*
X602Y640D01*
X618Y640D02*
X621Y640D01*
X631Y640D02*
X635Y640D01*
X779Y640D02*
X786Y640D01*
X0Y639D02*
X7Y639D01*
X165Y639D02*
X169Y639D01*
X174Y639D02*
X178Y639D01*
X193Y639D02*
X199Y639D01*
X211Y639D02*
X214Y639D01*
X231Y639D02*
X234Y639D01*
X548Y639D02*
X552Y639D01*
X560Y639D02*
X569Y639D01*
X581Y639D02*
X584Y639D01*
X590Y639D02*
X594Y639D01*
X598Y639D02*
X602Y639D01*
X618Y639D02*
X621Y639D01*
X631Y639D02*
X634Y639D01*
X779Y639D02*
X786Y639D01*
X0Y638D02*
X7Y638D01*
X165Y638D02*
X169Y638D01*
X174Y638D02*
X178Y638D01*
X193Y638D02*
X198Y638D01*
X211Y638D02*
X214Y638D01*
X231Y638D02*
X234Y638D01*
X548Y638D02*
X552Y638D01*
X559Y638D02*
X569Y638D01*
X581Y638D02*
X584Y638D01*
X591Y638D02*
X595Y638D01*
X598Y638D02*
X602Y638D01*
X618Y638D02*
X621Y638D01*
X630Y638D02*
X634Y638D01*
X779Y638D02*
X786Y638D01*
X0Y637D02*
X7Y637D01*
X165Y637D02*
X168Y637D01*
X175Y637D02*
X178Y637D01*
X193Y637D02*
X197Y637D01*
X211Y637D02*
X214Y637D01*
X231Y637D02*
X234Y637D01*
X548Y637D02*
X552Y637D01*
X559Y637D02*
X569Y637D01*
X581Y637D02*
X584Y637D01*
X591Y637D02*
X595Y637D01*
X598Y637D02*
X602Y637D01*
X618Y637D02*
X621Y637D01*
X630Y637D02*
X634Y637D01*
X779Y637D02*
X786Y637D01*
X0Y636D02*
X7Y636D01*
X164Y636D02*
X168Y636D01*
X175Y636D02*
X179Y636D01*
X193Y636D02*
X197Y636D01*
X211Y636D02*
X214Y636D01*
X231Y636D02*
X234Y636D01*
X548Y636D02*
X552Y636D01*
X560Y636D02*
X569Y636D01*
X581Y636D02*
X584Y636D01*
X592Y636D02*
X596Y636D01*
X598Y636D02*
X602Y636D01*
X618Y636D02*
X621Y636D01*
X629Y636D02*
X633Y636D01*
X779Y636D02*
X786Y636D01*
X0Y635D02*
X7Y635D01*
X164Y635D02*
X168Y635D01*
X175Y635D02*
X179Y635D01*
X193Y635D02*
X197Y635D01*
X211Y635D02*
X214Y635D01*
X231Y635D02*
X234Y635D01*
X548Y635D02*
X552Y635D01*
X565Y635D02*
X569Y635D01*
X581Y635D02*
X584Y635D01*
X592Y635D02*
X596Y635D01*
X598Y635D02*
X602Y635D01*
X618Y635D02*
X621Y635D01*
X629Y635D02*
X633Y635D01*
X779Y635D02*
X786Y635D01*
X0Y634D02*
X7Y634D01*
X164Y634D02*
X167Y634D01*
X175Y634D02*
X179Y634D01*
X193Y634D02*
X197Y634D01*
X211Y634D02*
X214Y634D01*
X231Y634D02*
X234Y634D01*
X548Y634D02*
X552Y634D01*
X566Y634D02*
X569Y634D01*
X581Y634D02*
X584Y634D01*
X592Y634D02*
X596Y634D01*
X598Y634D02*
X602Y634D01*
X618Y634D02*
X621Y634D01*
X628Y634D02*
X632Y634D01*
X779Y634D02*
X786Y634D01*
X0Y633D02*
X7Y633D01*
X163Y633D02*
X179Y633D01*
X193Y633D02*
X197Y633D01*
X211Y633D02*
X215Y633D01*
X231Y633D02*
X234Y633D01*
X548Y633D02*
X552Y633D01*
X566Y633D02*
X569Y633D01*
X581Y633D02*
X584Y633D01*
X593Y633D02*
X602Y633D01*
X618Y633D02*
X621Y633D01*
X628Y633D02*
X632Y633D01*
X779Y633D02*
X786Y633D01*
X0Y632D02*
X7Y632D01*
X163Y632D02*
X180Y632D01*
X193Y632D02*
X197Y632D01*
X211Y632D02*
X215Y632D01*
X231Y632D02*
X234Y632D01*
X548Y632D02*
X552Y632D01*
X566Y632D02*
X569Y632D01*
X581Y632D02*
X584Y632D01*
X593Y632D02*
X602Y632D01*
X618Y632D02*
X621Y632D01*
X627Y632D02*
X631Y632D01*
X779Y632D02*
X786Y632D01*
X0Y631D02*
X7Y631D01*
X163Y631D02*
X180Y631D01*
X193Y631D02*
X197Y631D01*
X211Y631D02*
X215Y631D01*
X231Y631D02*
X234Y631D01*
X548Y631D02*
X552Y631D01*
X566Y631D02*
X569Y631D01*
X581Y631D02*
X584Y631D01*
X594Y631D02*
X602Y631D01*
X618Y631D02*
X621Y631D01*
X627Y631D02*
X631Y631D01*
X779Y631D02*
X786Y631D01*
X0Y630D02*
X7Y630D01*
X163Y630D02*
X180Y630D01*
X193Y630D02*
X197Y630D01*
X211Y630D02*
X215Y630D01*
X231Y630D02*
X234Y630D01*
X548Y630D02*
X552Y630D01*
X566Y630D02*
X569Y630D01*
X581Y630D02*
X584Y630D01*
X594Y630D02*
X602Y630D01*
X618Y630D02*
X621Y630D01*
X626Y630D02*
X630Y630D01*
X779Y630D02*
X786Y630D01*
X0Y629D02*
X7Y629D01*
X162Y629D02*
X181Y629D01*
X193Y629D02*
X197Y629D01*
X211Y629D02*
X215Y629D01*
X231Y629D02*
X234Y629D01*
X245Y629D02*
X247Y629D01*
X548Y629D02*
X552Y629D01*
X565Y629D02*
X569Y629D01*
X581Y629D02*
X584Y629D01*
X595Y629D02*
X602Y629D01*
X618Y629D02*
X621Y629D01*
X626Y629D02*
X630Y629D01*
X779Y629D02*
X786Y629D01*
X0Y628D02*
X7Y628D01*
X162Y628D02*
X166Y628D01*
X177Y628D02*
X181Y628D01*
X193Y628D02*
X197Y628D01*
X211Y628D02*
X215Y628D01*
X231Y628D02*
X234Y628D01*
X244Y628D02*
X247Y628D01*
X548Y628D02*
X569Y628D01*
X581Y628D02*
X584Y628D01*
X595Y628D02*
X602Y628D01*
X615Y628D02*
X629Y628D01*
X779Y628D02*
X786Y628D01*
X0Y627D02*
X7Y627D01*
X162Y627D02*
X165Y627D01*
X178Y627D02*
X181Y627D01*
X193Y627D02*
X197Y627D01*
X211Y627D02*
X215Y627D01*
X231Y627D02*
X234Y627D01*
X244Y627D02*
X248Y627D01*
X549Y627D02*
X568Y627D01*
X581Y627D02*
X584Y627D01*
X596Y627D02*
X602Y627D01*
X614Y627D02*
X629Y627D01*
X779Y627D02*
X786Y627D01*
X0Y626D02*
X7Y626D01*
X161Y626D02*
X165Y626D01*
X178Y626D02*
X182Y626D01*
X193Y626D02*
X197Y626D01*
X211Y626D02*
X215Y626D01*
X231Y626D02*
X236Y626D01*
X243Y626D02*
X247Y626D01*
X550Y626D02*
X568Y626D01*
X581Y626D02*
X584Y626D01*
X596Y626D02*
X602Y626D01*
X613Y626D02*
X628Y626D01*
X779Y626D02*
X786Y626D01*
X0Y625D02*
X7Y625D01*
X161Y625D02*
X165Y625D01*
X178Y625D02*
X182Y625D01*
X193Y625D02*
X197Y625D01*
X211Y625D02*
X215Y625D01*
X231Y625D02*
X247Y625D01*
X551Y625D02*
X567Y625D01*
X581Y625D02*
X584Y625D01*
X596Y625D02*
X602Y625D01*
X614Y625D02*
X627Y625D01*
X779Y625D02*
X786Y625D01*
X0Y624D02*
X7Y624D01*
X161Y624D02*
X165Y624D01*
X178Y624D02*
X182Y624D01*
X193Y624D02*
X197Y624D01*
X211Y624D02*
X215Y624D01*
X232Y624D02*
X246Y624D01*
X553Y624D02*
X565Y624D01*
X582Y624D02*
X583Y624D01*
X597Y624D02*
X602Y624D01*
X614Y624D02*
X625Y624D01*
X779Y624D02*
X786Y624D01*
X0Y623D02*
X7Y623D01*
X161Y623D02*
X164Y623D01*
X179Y623D02*
X182Y623D01*
X194Y623D02*
X197Y623D01*
X211Y623D02*
X215Y623D01*
X233Y623D02*
X245Y623D01*
X779Y623D02*
X786Y623D01*
X0Y622D02*
X7Y622D01*
X161Y622D02*
X164Y622D01*
X179Y622D02*
X182Y622D01*
X194Y622D02*
X196Y622D01*
X212Y622D02*
X214Y622D01*
X234Y622D02*
X244Y622D01*
X779Y622D02*
X786Y622D01*
X0Y621D02*
X7Y621D01*
X779Y621D02*
X786Y621D01*
X0Y620D02*
X7Y620D01*
X779Y620D02*
X786Y620D01*
X0Y619D02*
X7Y619D01*
X779Y619D02*
X786Y619D01*
X0Y618D02*
X7Y618D01*
X779Y618D02*
X786Y618D01*
X0Y617D02*
X7Y617D01*
X779Y617D02*
X786Y617D01*
X0Y616D02*
X7Y616D01*
X779Y616D02*
X786Y616D01*
X0Y615D02*
X7Y615D01*
X779Y615D02*
X786Y615D01*
X0Y614D02*
X7Y614D01*
X779Y614D02*
X786Y614D01*
X0Y613D02*
X7Y613D01*
X779Y613D02*
X786Y613D01*
X0Y612D02*
X7Y612D01*
X779Y612D02*
X786Y612D01*
X0Y611D02*
X7Y611D01*
X779Y611D02*
X786Y611D01*
X0Y610D02*
X7Y610D01*
X779Y610D02*
X786Y610D01*
X0Y609D02*
X7Y609D01*
X779Y609D02*
X786Y609D01*
X0Y608D02*
X7Y608D01*
X779Y608D02*
X786Y608D01*
X0Y607D02*
X7Y607D01*
X779Y607D02*
X786Y607D01*
X0Y606D02*
X7Y606D01*
X779Y606D02*
X786Y606D01*
X0Y605D02*
X7Y605D01*
X779Y605D02*
X786Y605D01*
X0Y604D02*
X7Y604D01*
X779Y604D02*
X786Y604D01*
X0Y603D02*
X7Y603D01*
X779Y603D02*
X786Y603D01*
X0Y602D02*
X7Y602D01*
X779Y602D02*
X786Y602D01*
X0Y601D02*
X7Y601D01*
X779Y601D02*
X786Y601D01*
X0Y600D02*
X7Y600D01*
X779Y600D02*
X786Y600D01*
X0Y599D02*
X7Y599D01*
X779Y599D02*
X786Y599D01*
X0Y598D02*
X7Y598D01*
X779Y598D02*
X786Y598D01*
X0Y597D02*
X7Y597D01*
X779Y597D02*
X786Y597D01*
X0Y596D02*
X7Y596D01*
X779Y596D02*
X786Y596D01*
X0Y595D02*
X7Y595D01*
X779Y595D02*
X786Y595D01*
X0Y594D02*
X7Y594D01*
X779Y594D02*
X786Y594D01*
X0Y593D02*
X7Y593D01*
X779Y593D02*
X786Y593D01*
X0Y592D02*
X7Y592D01*
X779Y592D02*
X786Y592D01*
X0Y591D02*
X7Y591D01*
X779Y591D02*
X786Y591D01*
X0Y590D02*
X7Y590D01*
X779Y590D02*
X786Y590D01*
X0Y589D02*
X7Y589D01*
X779Y589D02*
X786Y589D01*
X0Y588D02*
X7Y588D01*
X779Y588D02*
X786Y588D01*
X0Y587D02*
X7Y587D01*
X779Y587D02*
X786Y587D01*
X0Y586D02*
X7Y586D01*
X779Y586D02*
X786Y586D01*
X0Y585D02*
X7Y585D01*
X779Y585D02*
X786Y585D01*
X0Y584D02*
X7Y584D01*
X779Y584D02*
X786Y584D01*
X0Y583D02*
X7Y583D01*
X779Y583D02*
X786Y583D01*
X0Y582D02*
X7Y582D01*
X779Y582D02*
X786Y582D01*
X0Y581D02*
X7Y581D01*
X779Y581D02*
X786Y581D01*
X0Y580D02*
X7Y580D01*
X171Y580D02*
X178Y580D01*
X192Y580D02*
X196Y580D01*
X211Y580D02*
X211Y580D01*
X226Y580D02*
X234Y580D01*
X779Y580D02*
X786Y580D01*
X0Y579D02*
X7Y579D01*
X168Y579D02*
X180Y579D01*
X191Y579D02*
X197Y579D01*
X209Y579D02*
X212Y579D01*
X224Y579D02*
X237Y579D01*
X779Y579D02*
X786Y579D01*
X0Y578D02*
X7Y578D01*
X167Y578D02*
X180Y578D01*
X191Y578D02*
X197Y578D01*
X209Y578D02*
X213Y578D01*
X224Y578D02*
X238Y578D01*
X779Y578D02*
X786Y578D01*
X0Y577D02*
X7Y577D01*
X166Y577D02*
X180Y577D01*
X191Y577D02*
X198Y577D01*
X209Y577D02*
X213Y577D01*
X224Y577D02*
X239Y577D01*
X779Y577D02*
X786Y577D01*
X0Y576D02*
X7Y576D01*
X165Y576D02*
X179Y576D01*
X191Y576D02*
X198Y576D01*
X209Y576D02*
X213Y576D01*
X225Y576D02*
X240Y576D01*
X779Y576D02*
X786Y576D01*
X0Y575D02*
X7Y575D01*
X165Y575D02*
X170Y575D01*
X191Y575D02*
X198Y575D01*
X209Y575D02*
X213Y575D01*
X228Y575D02*
X232Y575D01*
X236Y575D02*
X240Y575D01*
X779Y575D02*
X786Y575D01*
X0Y574D02*
X7Y574D01*
X164Y574D02*
X169Y574D01*
X191Y574D02*
X199Y574D01*
X209Y574D02*
X213Y574D01*
X228Y574D02*
X232Y574D01*
X237Y574D02*
X241Y574D01*
X779Y574D02*
X786Y574D01*
X0Y573D02*
X7Y573D01*
X163Y573D02*
X168Y573D01*
X191Y573D02*
X199Y573D01*
X209Y573D02*
X213Y573D01*
X228Y573D02*
X232Y573D01*
X237Y573D02*
X241Y573D01*
X779Y573D02*
X786Y573D01*
X0Y572D02*
X7Y572D01*
X162Y572D02*
X167Y572D01*
X191Y572D02*
X200Y572D01*
X209Y572D02*
X213Y572D01*
X228Y572D02*
X232Y572D01*
X238Y572D02*
X242Y572D01*
X779Y572D02*
X786Y572D01*
X0Y571D02*
X7Y571D01*
X162Y571D02*
X166Y571D01*
X191Y571D02*
X200Y571D01*
X209Y571D02*
X213Y571D01*
X228Y571D02*
X232Y571D01*
X238Y571D02*
X242Y571D01*
X779Y571D02*
X786Y571D01*
X0Y570D02*
X7Y570D01*
X161Y570D02*
X165Y570D01*
X191Y570D02*
X195Y570D01*
X197Y570D02*
X201Y570D01*
X209Y570D02*
X213Y570D01*
X228Y570D02*
X232Y570D01*
X239Y570D02*
X243Y570D01*
X779Y570D02*
X786Y570D01*
X0Y569D02*
X7Y569D01*
X160Y569D02*
X165Y569D01*
X191Y569D02*
X195Y569D01*
X197Y569D02*
X201Y569D01*
X209Y569D02*
X213Y569D01*
X228Y569D02*
X232Y569D01*
X239Y569D02*
X243Y569D01*
X779Y569D02*
X786Y569D01*
X0Y568D02*
X7Y568D01*
X160Y568D02*
X164Y568D01*
X191Y568D02*
X195Y568D01*
X198Y568D02*
X202Y568D01*
X209Y568D02*
X213Y568D01*
X228Y568D02*
X232Y568D01*
X240Y568D02*
X244Y568D01*
X779Y568D02*
X786Y568D01*
X0Y567D02*
X7Y567D01*
X159Y567D02*
X163Y567D01*
X191Y567D02*
X195Y567D01*
X198Y567D02*
X202Y567D01*
X209Y567D02*
X213Y567D01*
X228Y567D02*
X232Y567D01*
X240Y567D02*
X244Y567D01*
X779Y567D02*
X786Y567D01*
X0Y566D02*
X7Y566D01*
X159Y566D02*
X163Y566D01*
X191Y566D02*
X195Y566D01*
X198Y566D02*
X202Y566D01*
X209Y566D02*
X213Y566D01*
X228Y566D02*
X232Y566D01*
X241Y566D02*
X245Y566D01*
X779Y566D02*
X786Y566D01*
X0Y565D02*
X7Y565D01*
X159Y565D02*
X162Y565D01*
X191Y565D02*
X195Y565D01*
X199Y565D02*
X203Y565D01*
X209Y565D02*
X213Y565D01*
X228Y565D02*
X232Y565D01*
X241Y565D02*
X245Y565D01*
X779Y565D02*
X786Y565D01*
X0Y564D02*
X7Y564D01*
X159Y564D02*
X162Y564D01*
X191Y564D02*
X195Y564D01*
X199Y564D02*
X203Y564D01*
X209Y564D02*
X213Y564D01*
X228Y564D02*
X232Y564D01*
X242Y564D02*
X245Y564D01*
X779Y564D02*
X786Y564D01*
X0Y563D02*
X7Y563D01*
X159Y563D02*
X162Y563D01*
X191Y563D02*
X195Y563D01*
X200Y563D02*
X204Y563D01*
X209Y563D02*
X213Y563D01*
X228Y563D02*
X232Y563D01*
X242Y563D02*
X245Y563D01*
X779Y563D02*
X786Y563D01*
X0Y562D02*
X7Y562D01*
X159Y562D02*
X162Y562D01*
X191Y562D02*
X195Y562D01*
X200Y562D02*
X204Y562D01*
X209Y562D02*
X213Y562D01*
X228Y562D02*
X232Y562D01*
X242Y562D02*
X245Y562D01*
X779Y562D02*
X786Y562D01*
X0Y561D02*
X7Y561D01*
X159Y561D02*
X162Y561D01*
X172Y561D02*
X180Y561D01*
X191Y561D02*
X195Y561D01*
X201Y561D02*
X205Y561D01*
X209Y561D02*
X213Y561D01*
X228Y561D02*
X232Y561D01*
X241Y561D02*
X245Y561D01*
X779Y561D02*
X786Y561D01*
X0Y560D02*
X7Y560D01*
X159Y560D02*
X162Y560D01*
X170Y560D02*
X180Y560D01*
X191Y560D02*
X195Y560D01*
X201Y560D02*
X205Y560D01*
X209Y560D02*
X213Y560D01*
X228Y560D02*
X232Y560D01*
X241Y560D02*
X245Y560D01*
X779Y560D02*
X786Y560D01*
X0Y559D02*
X7Y559D01*
X159Y559D02*
X162Y559D01*
X170Y559D02*
X180Y559D01*
X191Y559D02*
X195Y559D01*
X201Y559D02*
X205Y559D01*
X209Y559D02*
X213Y559D01*
X228Y559D02*
X232Y559D01*
X241Y559D02*
X245Y559D01*
X779Y559D02*
X786Y559D01*
X0Y558D02*
X7Y558D01*
X159Y558D02*
X162Y558D01*
X170Y558D02*
X180Y558D01*
X191Y558D02*
X195Y558D01*
X202Y558D02*
X206Y558D01*
X209Y558D02*
X213Y558D01*
X228Y558D02*
X232Y558D01*
X240Y558D02*
X244Y558D01*
X779Y558D02*
X786Y558D01*
X0Y557D02*
X7Y557D01*
X159Y557D02*
X162Y557D01*
X171Y557D02*
X180Y557D01*
X191Y557D02*
X195Y557D01*
X202Y557D02*
X206Y557D01*
X209Y557D02*
X213Y557D01*
X228Y557D02*
X232Y557D01*
X240Y557D02*
X244Y557D01*
X779Y557D02*
X786Y557D01*
X0Y556D02*
X7Y556D01*
X159Y556D02*
X162Y556D01*
X176Y556D02*
X180Y556D01*
X191Y556D02*
X195Y556D01*
X203Y556D02*
X207Y556D01*
X209Y556D02*
X213Y556D01*
X228Y556D02*
X232Y556D01*
X239Y556D02*
X243Y556D01*
X779Y556D02*
X786Y556D01*
X0Y555D02*
X7Y555D01*
X159Y555D02*
X162Y555D01*
X176Y555D02*
X180Y555D01*
X191Y555D02*
X195Y555D01*
X203Y555D02*
X207Y555D01*
X209Y555D02*
X213Y555D01*
X228Y555D02*
X232Y555D01*
X239Y555D02*
X243Y555D01*
X779Y555D02*
X786Y555D01*
X0Y554D02*
X7Y554D01*
X159Y554D02*
X162Y554D01*
X176Y554D02*
X180Y554D01*
X191Y554D02*
X195Y554D01*
X204Y554D02*
X213Y554D01*
X228Y554D02*
X232Y554D01*
X238Y554D02*
X242Y554D01*
X779Y554D02*
X786Y554D01*
X0Y553D02*
X7Y553D01*
X159Y553D02*
X162Y553D01*
X176Y553D02*
X180Y553D01*
X191Y553D02*
X195Y553D01*
X204Y553D02*
X213Y553D01*
X228Y553D02*
X232Y553D01*
X238Y553D02*
X242Y553D01*
X779Y553D02*
X786Y553D01*
X0Y552D02*
X7Y552D01*
X159Y552D02*
X162Y552D01*
X176Y552D02*
X180Y552D01*
X191Y552D02*
X195Y552D01*
X205Y552D02*
X213Y552D01*
X228Y552D02*
X232Y552D01*
X237Y552D02*
X241Y552D01*
X779Y552D02*
X786Y552D01*
X0Y551D02*
X7Y551D01*
X159Y551D02*
X162Y551D01*
X176Y551D02*
X180Y551D01*
X191Y551D02*
X195Y551D01*
X205Y551D02*
X213Y551D01*
X228Y551D02*
X232Y551D01*
X237Y551D02*
X241Y551D01*
X779Y551D02*
X786Y551D01*
X0Y550D02*
X7Y550D01*
X159Y550D02*
X163Y550D01*
X175Y550D02*
X180Y550D01*
X191Y550D02*
X195Y550D01*
X205Y550D02*
X213Y550D01*
X228Y550D02*
X232Y550D01*
X236Y550D02*
X240Y550D01*
X779Y550D02*
X786Y550D01*
X0Y549D02*
X7Y549D01*
X159Y549D02*
X179Y549D01*
X191Y549D02*
X195Y549D01*
X206Y549D02*
X213Y549D01*
X225Y549D02*
X240Y549D01*
X779Y549D02*
X786Y549D01*
X0Y548D02*
X7Y548D01*
X160Y548D02*
X179Y548D01*
X191Y548D02*
X195Y548D01*
X206Y548D02*
X213Y548D01*
X224Y548D02*
X239Y548D01*
X779Y548D02*
X786Y548D01*
X0Y547D02*
X7Y547D01*
X161Y547D02*
X178Y547D01*
X191Y547D02*
X195Y547D01*
X207Y547D02*
X213Y547D01*
X224Y547D02*
X238Y547D01*
X779Y547D02*
X786Y547D01*
X0Y546D02*
X7Y546D01*
X162Y546D02*
X177Y546D01*
X192Y546D02*
X194Y546D01*
X207Y546D02*
X213Y546D01*
X224Y546D02*
X237Y546D01*
X779Y546D02*
X786Y546D01*
X0Y545D02*
X7Y545D01*
X779Y545D02*
X786Y545D01*
X0Y544D02*
X7Y544D01*
X779Y544D02*
X786Y544D01*
X0Y543D02*
X7Y543D01*
X779Y543D02*
X786Y543D01*
X0Y542D02*
X7Y542D01*
X779Y542D02*
X786Y542D01*
X0Y541D02*
X7Y541D01*
X779Y541D02*
X786Y541D01*
X0Y540D02*
X7Y540D01*
X779Y540D02*
X786Y540D01*
X0Y539D02*
X7Y539D01*
X779Y539D02*
X786Y539D01*
X0Y538D02*
X7Y538D01*
X779Y538D02*
X786Y538D01*
X0Y537D02*
X7Y537D01*
X779Y537D02*
X786Y537D01*
X0Y536D02*
X7Y536D01*
X779Y536D02*
X786Y536D01*
X0Y535D02*
X7Y535D01*
X779Y535D02*
X786Y535D01*
X0Y534D02*
X7Y534D01*
X779Y534D02*
X786Y534D01*
X0Y533D02*
X7Y533D01*
X779Y533D02*
X786Y533D01*
X0Y532D02*
X7Y532D01*
X779Y532D02*
X786Y532D01*
X0Y531D02*
X7Y531D01*
X779Y531D02*
X786Y531D01*
X0Y530D02*
X7Y530D01*
X779Y530D02*
X786Y530D01*
X0Y529D02*
X7Y529D01*
X779Y529D02*
X786Y529D01*
X0Y528D02*
X7Y528D01*
X779Y528D02*
X786Y528D01*
X0Y527D02*
X7Y527D01*
X779Y527D02*
X786Y527D01*
X0Y526D02*
X7Y526D01*
X779Y526D02*
X786Y526D01*
X0Y525D02*
X7Y525D01*
X779Y525D02*
X786Y525D01*
X0Y524D02*
X7Y524D01*
X779Y524D02*
X786Y524D01*
X0Y523D02*
X7Y523D01*
X779Y523D02*
X786Y523D01*
X0Y522D02*
X7Y522D01*
X779Y522D02*
X786Y522D01*
X0Y521D02*
X7Y521D01*
X779Y521D02*
X786Y521D01*
X0Y520D02*
X7Y520D01*
X779Y520D02*
X786Y520D01*
X0Y519D02*
X7Y519D01*
X779Y519D02*
X786Y519D01*
X0Y518D02*
X7Y518D01*
X779Y518D02*
X786Y518D01*
X0Y517D02*
X7Y517D01*
X779Y517D02*
X786Y517D01*
X0Y516D02*
X7Y516D01*
X779Y516D02*
X786Y516D01*
X0Y515D02*
X7Y515D01*
X779Y515D02*
X786Y515D01*
X0Y514D02*
X7Y514D01*
X779Y514D02*
X786Y514D01*
X0Y513D02*
X7Y513D01*
X779Y513D02*
X786Y513D01*
X0Y512D02*
X7Y512D01*
X779Y512D02*
X786Y512D01*
X0Y511D02*
X7Y511D01*
X779Y511D02*
X786Y511D01*
X0Y510D02*
X7Y510D01*
X779Y510D02*
X786Y510D01*
X0Y509D02*
X7Y509D01*
X779Y509D02*
X786Y509D01*
X0Y508D02*
X7Y508D01*
X779Y508D02*
X786Y508D01*
X0Y507D02*
X7Y507D01*
X779Y507D02*
X786Y507D01*
X0Y506D02*
X7Y506D01*
X779Y506D02*
X786Y506D01*
X0Y505D02*
X7Y505D01*
X779Y505D02*
X786Y505D01*
X0Y504D02*
X7Y504D01*
X779Y504D02*
X786Y504D01*
X0Y503D02*
X7Y503D01*
X779Y503D02*
X786Y503D01*
X0Y502D02*
X7Y502D01*
X779Y502D02*
X786Y502D01*
X0Y501D02*
X7Y501D01*
X779Y501D02*
X786Y501D01*
X0Y500D02*
X7Y500D01*
X497Y500D02*
X515Y500D01*
X530Y500D02*
X550Y500D01*
X565Y500D02*
X580Y500D01*
X595Y500D02*
X616Y500D01*
X628Y500D02*
X649Y500D01*
X779Y500D02*
X786Y500D01*
X0Y499D02*
X7Y499D01*
X497Y499D02*
X516Y499D01*
X530Y499D02*
X551Y499D01*
X564Y499D02*
X582Y499D01*
X595Y499D02*
X616Y499D01*
X628Y499D02*
X649Y499D01*
X779Y499D02*
X786Y499D01*
X0Y498D02*
X7Y498D01*
X497Y498D02*
X517Y498D01*
X530Y498D02*
X551Y498D01*
X563Y498D02*
X583Y498D01*
X595Y498D02*
X616Y498D01*
X628Y498D02*
X649Y498D01*
X779Y498D02*
X786Y498D01*
X0Y497D02*
X7Y497D01*
X497Y497D02*
X518Y497D01*
X530Y497D02*
X550Y497D01*
X563Y497D02*
X583Y497D01*
X595Y497D02*
X616Y497D01*
X628Y497D02*
X649Y497D01*
X779Y497D02*
X786Y497D01*
X0Y496D02*
X7Y496D01*
X497Y496D02*
X501Y496D01*
X513Y496D02*
X518Y496D01*
X530Y496D02*
X533Y496D01*
X562Y496D02*
X566Y496D01*
X579Y496D02*
X584Y496D01*
X595Y496D02*
X599Y496D01*
X628Y496D02*
X632Y496D01*
X636Y496D02*
X640Y496D01*
X645Y496D02*
X649Y496D01*
X779Y496D02*
X786Y496D01*
X0Y495D02*
X7Y495D01*
X497Y495D02*
X501Y495D01*
X514Y495D02*
X518Y495D01*
X530Y495D02*
X533Y495D01*
X562Y495D02*
X566Y495D01*
X580Y495D02*
X584Y495D01*
X595Y495D02*
X599Y495D01*
X628Y495D02*
X631Y495D01*
X637Y495D02*
X640Y495D01*
X646Y495D02*
X649Y495D01*
X779Y495D02*
X786Y495D01*
X0Y494D02*
X7Y494D01*
X497Y494D02*
X501Y494D01*
X515Y494D02*
X518Y494D01*
X530Y494D02*
X533Y494D01*
X563Y494D02*
X567Y494D01*
X580Y494D02*
X584Y494D01*
X595Y494D02*
X599Y494D01*
X628Y494D02*
X631Y494D01*
X637Y494D02*
X640Y494D01*
X646Y494D02*
X649Y494D01*
X779Y494D02*
X786Y494D01*
X0Y493D02*
X7Y493D01*
X497Y493D02*
X501Y493D01*
X515Y493D02*
X518Y493D01*
X530Y493D02*
X533Y493D01*
X563Y493D02*
X568Y493D01*
X581Y493D02*
X583Y493D01*
X595Y493D02*
X599Y493D01*
X629Y493D02*
X630Y493D01*
X637Y493D02*
X640Y493D01*
X646Y493D02*
X648Y493D01*
X779Y493D02*
X786Y493D01*
X0Y492D02*
X7Y492D01*
X497Y492D02*
X501Y492D01*
X515Y492D02*
X518Y492D01*
X530Y492D02*
X533Y492D01*
X564Y492D02*
X569Y492D01*
X595Y492D02*
X599Y492D01*
X637Y492D02*
X640Y492D01*
X779Y492D02*
X786Y492D01*
X0Y491D02*
X7Y491D01*
X497Y491D02*
X501Y491D01*
X515Y491D02*
X518Y491D01*
X530Y491D02*
X533Y491D01*
X565Y491D02*
X569Y491D01*
X595Y491D02*
X599Y491D01*
X637Y491D02*
X640Y491D01*
X779Y491D02*
X786Y491D01*
X0Y490D02*
X7Y490D01*
X497Y490D02*
X501Y490D01*
X514Y490D02*
X518Y490D01*
X530Y490D02*
X533Y490D01*
X565Y490D02*
X570Y490D01*
X595Y490D02*
X599Y490D01*
X637Y490D02*
X640Y490D01*
X779Y490D02*
X786Y490D01*
X0Y489D02*
X7Y489D01*
X497Y489D02*
X518Y489D01*
X530Y489D02*
X533Y489D01*
X566Y489D02*
X571Y489D01*
X595Y489D02*
X599Y489D01*
X637Y489D02*
X640Y489D01*
X779Y489D02*
X786Y489D01*
X0Y488D02*
X7Y488D01*
X497Y488D02*
X517Y488D01*
X530Y488D02*
X533Y488D01*
X567Y488D02*
X572Y488D01*
X595Y488D02*
X599Y488D01*
X637Y488D02*
X640Y488D01*
X779Y488D02*
X786Y488D01*
X0Y487D02*
X7Y487D01*
X497Y487D02*
X517Y487D01*
X530Y487D02*
X533Y487D01*
X568Y487D02*
X572Y487D01*
X595Y487D02*
X599Y487D01*
X637Y487D02*
X640Y487D01*
X779Y487D02*
X786Y487D01*
X0Y486D02*
X7Y486D01*
X497Y486D02*
X515Y486D01*
X530Y486D02*
X533Y486D01*
X568Y486D02*
X573Y486D01*
X595Y486D02*
X599Y486D01*
X637Y486D02*
X640Y486D01*
X779Y486D02*
X786Y486D01*
X0Y485D02*
X7Y485D01*
X497Y485D02*
X513Y485D01*
X530Y485D02*
X541Y485D01*
X569Y485D02*
X574Y485D01*
X595Y485D02*
X607Y485D01*
X637Y485D02*
X640Y485D01*
X779Y485D02*
X786Y485D01*
X0Y484D02*
X7Y484D01*
X497Y484D02*
X501Y484D01*
X505Y484D02*
X509Y484D01*
X530Y484D02*
X542Y484D01*
X570Y484D02*
X575Y484D01*
X595Y484D02*
X607Y484D01*
X637Y484D02*
X640Y484D01*
X779Y484D02*
X786Y484D01*
X0Y483D02*
X7Y483D01*
X497Y483D02*
X501Y483D01*
X506Y483D02*
X510Y483D01*
X530Y483D02*
X542Y483D01*
X571Y483D02*
X576Y483D01*
X595Y483D02*
X607Y483D01*
X637Y483D02*
X640Y483D01*
X779Y483D02*
X786Y483D01*
X0Y482D02*
X7Y482D01*
X497Y482D02*
X501Y482D01*
X506Y482D02*
X511Y482D01*
X530Y482D02*
X542Y482D01*
X572Y482D02*
X576Y482D01*
X595Y482D02*
X607Y482D01*
X637Y482D02*
X640Y482D01*
X779Y482D02*
X786Y482D01*
X0Y481D02*
X7Y481D01*
X497Y481D02*
X501Y481D01*
X507Y481D02*
X511Y481D01*
X530Y481D02*
X540Y481D01*
X572Y481D02*
X577Y481D01*
X595Y481D02*
X605Y481D01*
X637Y481D02*
X640Y481D01*
X779Y481D02*
X786Y481D01*
X0Y480D02*
X7Y480D01*
X497Y480D02*
X501Y480D01*
X507Y480D02*
X512Y480D01*
X530Y480D02*
X533Y480D01*
X573Y480D02*
X578Y480D01*
X595Y480D02*
X599Y480D01*
X637Y480D02*
X640Y480D01*
X779Y480D02*
X786Y480D01*
X0Y479D02*
X7Y479D01*
X497Y479D02*
X501Y479D01*
X508Y479D02*
X512Y479D01*
X530Y479D02*
X533Y479D01*
X574Y479D02*
X579Y479D01*
X595Y479D02*
X599Y479D01*
X637Y479D02*
X640Y479D01*
X779Y479D02*
X786Y479D01*
X0Y478D02*
X7Y478D01*
X497Y478D02*
X501Y478D01*
X509Y478D02*
X513Y478D01*
X530Y478D02*
X533Y478D01*
X575Y478D02*
X579Y478D01*
X595Y478D02*
X599Y478D01*
X637Y478D02*
X640Y478D01*
X779Y478D02*
X786Y478D01*
X0Y477D02*
X7Y477D01*
X497Y477D02*
X501Y477D01*
X509Y477D02*
X513Y477D01*
X530Y477D02*
X533Y477D01*
X575Y477D02*
X580Y477D01*
X595Y477D02*
X599Y477D01*
X637Y477D02*
X640Y477D01*
X779Y477D02*
X786Y477D01*
X0Y476D02*
X7Y476D01*
X497Y476D02*
X501Y476D01*
X510Y476D02*
X514Y476D01*
X530Y476D02*
X533Y476D01*
X576Y476D02*
X581Y476D01*
X595Y476D02*
X599Y476D01*
X637Y476D02*
X640Y476D01*
X779Y476D02*
X786Y476D01*
X0Y475D02*
X7Y475D01*
X497Y475D02*
X501Y475D01*
X510Y475D02*
X515Y475D01*
X530Y475D02*
X533Y475D01*
X577Y475D02*
X582Y475D01*
X595Y475D02*
X599Y475D01*
X637Y475D02*
X640Y475D01*
X779Y475D02*
X786Y475D01*
X0Y474D02*
X7Y474D01*
X497Y474D02*
X501Y474D01*
X511Y474D02*
X515Y474D01*
X530Y474D02*
X533Y474D01*
X578Y474D02*
X583Y474D01*
X595Y474D02*
X599Y474D01*
X637Y474D02*
X640Y474D01*
X779Y474D02*
X786Y474D01*
X0Y473D02*
X7Y473D01*
X497Y473D02*
X501Y473D01*
X511Y473D02*
X516Y473D01*
X530Y473D02*
X533Y473D01*
X563Y473D02*
X565Y473D01*
X579Y473D02*
X583Y473D01*
X595Y473D02*
X599Y473D01*
X637Y473D02*
X640Y473D01*
X779Y473D02*
X786Y473D01*
X0Y472D02*
X7Y472D01*
X497Y472D02*
X501Y472D01*
X512Y472D02*
X516Y472D01*
X530Y472D02*
X533Y472D01*
X562Y472D02*
X566Y472D01*
X579Y472D02*
X584Y472D01*
X595Y472D02*
X599Y472D01*
X637Y472D02*
X640Y472D01*
X779Y472D02*
X786Y472D01*
X0Y471D02*
X7Y471D01*
X497Y471D02*
X501Y471D01*
X513Y471D02*
X517Y471D01*
X530Y471D02*
X533Y471D01*
X562Y471D02*
X566Y471D01*
X580Y471D02*
X584Y471D01*
X595Y471D02*
X599Y471D01*
X637Y471D02*
X640Y471D01*
X779Y471D02*
X786Y471D01*
X0Y470D02*
X7Y470D01*
X497Y470D02*
X501Y470D01*
X513Y470D02*
X518Y470D01*
X530Y470D02*
X550Y470D01*
X563Y470D02*
X584Y470D01*
X595Y470D02*
X615Y470D01*
X637Y470D02*
X640Y470D01*
X779Y470D02*
X786Y470D01*
X0Y469D02*
X7Y469D01*
X497Y469D02*
X501Y469D01*
X514Y469D02*
X518Y469D01*
X530Y469D02*
X551Y469D01*
X563Y469D02*
X583Y469D01*
X595Y469D02*
X616Y469D01*
X637Y469D02*
X640Y469D01*
X779Y469D02*
X786Y469D01*
X0Y468D02*
X7Y468D01*
X497Y468D02*
X501Y468D01*
X514Y468D02*
X518Y468D01*
X530Y468D02*
X551Y468D01*
X564Y468D02*
X583Y468D01*
X595Y468D02*
X616Y468D01*
X637Y468D02*
X640Y468D01*
X779Y468D02*
X786Y468D01*
X0Y467D02*
X7Y467D01*
X498Y467D02*
X500Y467D01*
X515Y467D02*
X518Y467D01*
X530Y467D02*
X551Y467D01*
X565Y467D02*
X582Y467D01*
X595Y467D02*
X616Y467D01*
X637Y467D02*
X640Y467D01*
X779Y467D02*
X786Y467D01*
X0Y466D02*
X7Y466D01*
X498Y466D02*
X499Y466D01*
X516Y466D02*
X517Y466D01*
X530Y466D02*
X550Y466D01*
X567Y466D02*
X580Y466D01*
X595Y466D02*
X615Y466D01*
X638Y466D02*
X639Y466D01*
X779Y466D02*
X786Y466D01*
X0Y465D02*
X7Y465D01*
X779Y465D02*
X786Y465D01*
X0Y464D02*
X7Y464D01*
X779Y464D02*
X786Y464D01*
X0Y463D02*
X7Y463D01*
X779Y463D02*
X786Y463D01*
X0Y462D02*
X7Y462D01*
X779Y462D02*
X786Y462D01*
X0Y461D02*
X7Y461D01*
X779Y461D02*
X786Y461D01*
X0Y460D02*
X7Y460D01*
X779Y460D02*
X786Y460D01*
X0Y459D02*
X7Y459D01*
X779Y459D02*
X786Y459D01*
X0Y458D02*
X7Y458D01*
X779Y458D02*
X786Y458D01*
X0Y457D02*
X7Y457D01*
X779Y457D02*
X786Y457D01*
X0Y456D02*
X7Y456D01*
X779Y456D02*
X786Y456D01*
X0Y455D02*
X7Y455D01*
X779Y455D02*
X786Y455D01*
X0Y454D02*
X7Y454D01*
X779Y454D02*
X786Y454D01*
X0Y453D02*
X7Y453D01*
X779Y453D02*
X786Y453D01*
X0Y452D02*
X7Y452D01*
X779Y452D02*
X786Y452D01*
X0Y451D02*
X7Y451D01*
X779Y451D02*
X786Y451D01*
X0Y450D02*
X7Y450D01*
X779Y450D02*
X786Y450D01*
X0Y449D02*
X7Y449D01*
X779Y449D02*
X786Y449D01*
X0Y448D02*
X7Y448D01*
X779Y448D02*
X786Y448D01*
X0Y447D02*
X7Y447D01*
X779Y447D02*
X786Y447D01*
X0Y446D02*
X7Y446D01*
X779Y446D02*
X786Y446D01*
X0Y445D02*
X7Y445D01*
X779Y445D02*
X786Y445D01*
X0Y444D02*
X7Y444D01*
X779Y444D02*
X786Y444D01*
X0Y443D02*
X7Y443D01*
X779Y443D02*
X786Y443D01*
X0Y442D02*
X7Y442D01*
X779Y442D02*
X786Y442D01*
X0Y441D02*
X7Y441D01*
X779Y441D02*
X786Y441D01*
X0Y440D02*
X7Y440D01*
X779Y440D02*
X786Y440D01*
X0Y439D02*
X7Y439D01*
X779Y439D02*
X786Y439D01*
X0Y438D02*
X7Y438D01*
X779Y438D02*
X786Y438D01*
X0Y437D02*
X7Y437D01*
X779Y437D02*
X786Y437D01*
X0Y436D02*
X7Y436D01*
X779Y436D02*
X786Y436D01*
X0Y435D02*
X7Y435D01*
X779Y435D02*
X786Y435D01*
X0Y434D02*
X7Y434D01*
X779Y434D02*
X786Y434D01*
X0Y433D02*
X7Y433D01*
X779Y433D02*
X786Y433D01*
X0Y432D02*
X7Y432D01*
X779Y432D02*
X786Y432D01*
X0Y431D02*
X7Y431D01*
X779Y431D02*
X786Y431D01*
X0Y430D02*
X7Y430D01*
X779Y430D02*
X786Y430D01*
X0Y429D02*
X7Y429D01*
X779Y429D02*
X786Y429D01*
X0Y428D02*
X7Y428D01*
X779Y428D02*
X786Y428D01*
X0Y427D02*
X7Y427D01*
X779Y427D02*
X786Y427D01*
X0Y426D02*
X7Y426D01*
X779Y426D02*
X786Y426D01*
X0Y425D02*
X7Y425D01*
X779Y425D02*
X786Y425D01*
X0Y424D02*
X7Y424D01*
X779Y424D02*
X786Y424D01*
X0Y423D02*
X7Y423D01*
X779Y423D02*
X786Y423D01*
X0Y422D02*
X7Y422D01*
X779Y422D02*
X786Y422D01*
X0Y421D02*
X7Y421D01*
X587Y421D02*
X600Y421D01*
X614Y421D02*
X630Y421D01*
X779Y421D02*
X786Y421D01*
X0Y420D02*
X7Y420D01*
X586Y420D02*
X600Y420D01*
X613Y420D02*
X631Y420D01*
X779Y420D02*
X786Y420D01*
X0Y419D02*
X7Y419D01*
X585Y419D02*
X600Y419D01*
X612Y419D02*
X632Y419D01*
X779Y419D02*
X786Y419D01*
X0Y418D02*
X7Y418D01*
X584Y418D02*
X600Y418D01*
X612Y418D02*
X632Y418D01*
X779Y418D02*
X786Y418D01*
X0Y417D02*
X7Y417D01*
X584Y417D02*
X589Y417D01*
X612Y417D02*
X615Y417D01*
X629Y417D02*
X633Y417D01*
X779Y417D02*
X786Y417D01*
X0Y416D02*
X7Y416D01*
X583Y416D02*
X588Y416D01*
X612Y416D02*
X616Y416D01*
X629Y416D02*
X633Y416D01*
X779Y416D02*
X786Y416D01*
X0Y415D02*
X7Y415D01*
X583Y415D02*
X587Y415D01*
X612Y415D02*
X616Y415D01*
X630Y415D02*
X633Y415D01*
X779Y415D02*
X786Y415D01*
X0Y414D02*
X7Y414D01*
X582Y414D02*
X587Y414D01*
X612Y414D02*
X617Y414D01*
X630Y414D02*
X632Y414D01*
X779Y414D02*
X786Y414D01*
X0Y413D02*
X7Y413D01*
X582Y413D02*
X586Y413D01*
X613Y413D02*
X618Y413D01*
X779Y413D02*
X786Y413D01*
X0Y412D02*
X7Y412D01*
X581Y412D02*
X586Y412D01*
X614Y412D02*
X619Y412D01*
X779Y412D02*
X786Y412D01*
X0Y411D02*
X7Y411D01*
X581Y411D02*
X585Y411D01*
X615Y411D02*
X619Y411D01*
X779Y411D02*
X786Y411D01*
X0Y410D02*
X7Y410D01*
X581Y410D02*
X585Y410D01*
X615Y410D02*
X620Y410D01*
X779Y410D02*
X786Y410D01*
X0Y409D02*
X7Y409D01*
X580Y409D02*
X584Y409D01*
X616Y409D02*
X621Y409D01*
X779Y409D02*
X786Y409D01*
X0Y408D02*
X7Y408D01*
X580Y408D02*
X584Y408D01*
X617Y408D02*
X622Y408D01*
X779Y408D02*
X786Y408D01*
X0Y407D02*
X7Y407D01*
X579Y407D02*
X583Y407D01*
X618Y407D02*
X623Y407D01*
X779Y407D02*
X786Y407D01*
X0Y406D02*
X7Y406D01*
X579Y406D02*
X583Y406D01*
X618Y406D02*
X623Y406D01*
X779Y406D02*
X786Y406D01*
X0Y405D02*
X7Y405D01*
X579Y405D02*
X583Y405D01*
X619Y405D02*
X624Y405D01*
X779Y405D02*
X786Y405D01*
X0Y404D02*
X7Y404D01*
X579Y404D02*
X582Y404D01*
X620Y404D02*
X625Y404D01*
X779Y404D02*
X786Y404D01*
X0Y403D02*
X7Y403D01*
X579Y403D02*
X583Y403D01*
X621Y403D02*
X626Y403D01*
X779Y403D02*
X786Y403D01*
X0Y402D02*
X7Y402D01*
X579Y402D02*
X583Y402D01*
X622Y402D02*
X626Y402D01*
X779Y402D02*
X786Y402D01*
X0Y401D02*
X7Y401D01*
X579Y401D02*
X583Y401D01*
X622Y401D02*
X627Y401D01*
X779Y401D02*
X786Y401D01*
X0Y400D02*
X7Y400D01*
X580Y400D02*
X584Y400D01*
X623Y400D02*
X628Y400D01*
X779Y400D02*
X786Y400D01*
X0Y399D02*
X7Y399D01*
X580Y399D02*
X584Y399D01*
X624Y399D02*
X629Y399D01*
X779Y399D02*
X786Y399D01*
X0Y398D02*
X7Y398D01*
X581Y398D02*
X585Y398D01*
X625Y398D02*
X630Y398D01*
X779Y398D02*
X786Y398D01*
X0Y397D02*
X7Y397D01*
X581Y397D02*
X585Y397D01*
X625Y397D02*
X630Y397D01*
X779Y397D02*
X786Y397D01*
X0Y396D02*
X7Y396D01*
X582Y396D02*
X586Y396D01*
X626Y396D02*
X631Y396D01*
X779Y396D02*
X786Y396D01*
X0Y395D02*
X7Y395D01*
X582Y395D02*
X586Y395D01*
X613Y395D02*
X613Y395D01*
X627Y395D02*
X632Y395D01*
X779Y395D02*
X786Y395D01*
X0Y394D02*
X7Y394D01*
X583Y394D02*
X587Y394D01*
X612Y394D02*
X615Y394D01*
X628Y394D02*
X632Y394D01*
X779Y394D02*
X786Y394D01*
X0Y393D02*
X7Y393D01*
X583Y393D02*
X587Y393D01*
X612Y393D02*
X615Y393D01*
X629Y393D02*
X633Y393D01*
X779Y393D02*
X786Y393D01*
X0Y392D02*
X7Y392D01*
X584Y392D02*
X588Y392D01*
X612Y392D02*
X616Y392D01*
X629Y392D02*
X633Y392D01*
X779Y392D02*
X786Y392D01*
X0Y391D02*
X7Y391D01*
X584Y391D02*
X599Y391D01*
X612Y391D02*
X633Y391D01*
X779Y391D02*
X786Y391D01*
X0Y390D02*
X7Y390D01*
X585Y390D02*
X600Y390D01*
X612Y390D02*
X633Y390D01*
X779Y390D02*
X786Y390D01*
X0Y389D02*
X7Y389D01*
X586Y389D02*
X600Y389D01*
X613Y389D02*
X632Y389D01*
X779Y389D02*
X786Y389D01*
X0Y388D02*
X7Y388D01*
X587Y388D02*
X600Y388D01*
X614Y388D02*
X631Y388D01*
X779Y388D02*
X786Y388D01*
X0Y387D02*
X7Y387D01*
X589Y387D02*
X599Y387D01*
X616Y387D02*
X629Y387D01*
X779Y387D02*
X786Y387D01*
X0Y386D02*
X7Y386D01*
X779Y386D02*
X786Y386D01*
X0Y385D02*
X7Y385D01*
X779Y385D02*
X786Y385D01*
X0Y384D02*
X7Y384D01*
X779Y384D02*
X786Y384D01*
X0Y383D02*
X7Y383D01*
X779Y383D02*
X786Y383D01*
X0Y382D02*
X7Y382D01*
X779Y382D02*
X786Y382D01*
X0Y381D02*
X7Y381D01*
X779Y381D02*
X786Y381D01*
X0Y380D02*
X7Y380D01*
X779Y380D02*
X786Y380D01*
X0Y379D02*
X7Y379D01*
X779Y379D02*
X786Y379D01*
X0Y378D02*
X7Y378D01*
X779Y378D02*
X786Y378D01*
X0Y377D02*
X7Y377D01*
X779Y377D02*
X786Y377D01*
X0Y376D02*
X7Y376D01*
X779Y376D02*
X786Y376D01*
X0Y375D02*
X7Y375D01*
X779Y375D02*
X786Y375D01*
X0Y374D02*
X7Y374D01*
X779Y374D02*
X786Y374D01*
X0Y373D02*
X7Y373D01*
X779Y373D02*
X786Y373D01*
X0Y372D02*
X7Y372D01*
X779Y372D02*
X786Y372D01*
X0Y371D02*
X7Y371D01*
X779Y371D02*
X786Y371D01*
X0Y370D02*
X7Y370D01*
X779Y370D02*
X786Y370D01*
X0Y369D02*
X7Y369D01*
X779Y369D02*
X786Y369D01*
X0Y368D02*
X7Y368D01*
X779Y368D02*
X786Y368D01*
X0Y367D02*
X7Y367D01*
X779Y367D02*
X786Y367D01*
X0Y366D02*
X7Y366D01*
X779Y366D02*
X786Y366D01*
X0Y365D02*
X7Y365D01*
X779Y365D02*
X786Y365D01*
X0Y364D02*
X7Y364D01*
X779Y364D02*
X786Y364D01*
X0Y363D02*
X7Y363D01*
X779Y363D02*
X786Y363D01*
X0Y362D02*
X7Y362D01*
X779Y362D02*
X786Y362D01*
X0Y361D02*
X7Y361D01*
X779Y361D02*
X786Y361D01*
X0Y360D02*
X7Y360D01*
X779Y360D02*
X786Y360D01*
X0Y359D02*
X7Y359D01*
X779Y359D02*
X786Y359D01*
X0Y358D02*
X7Y358D01*
X779Y358D02*
X786Y358D01*
X0Y357D02*
X7Y357D01*
X779Y357D02*
X786Y357D01*
X0Y356D02*
X7Y356D01*
X779Y356D02*
X786Y356D01*
X0Y355D02*
X7Y355D01*
X779Y355D02*
X786Y355D01*
X0Y354D02*
X7Y354D01*
X779Y354D02*
X786Y354D01*
X0Y353D02*
X7Y353D01*
X779Y353D02*
X786Y353D01*
X0Y352D02*
X7Y352D01*
X779Y352D02*
X786Y352D01*
X0Y351D02*
X7Y351D01*
X779Y351D02*
X786Y351D01*
X0Y350D02*
X7Y350D01*
X779Y350D02*
X786Y350D01*
X0Y349D02*
X7Y349D01*
X779Y349D02*
X786Y349D01*
X0Y348D02*
X7Y348D01*
X779Y348D02*
X786Y348D01*
X0Y347D02*
X7Y347D01*
X779Y347D02*
X786Y347D01*
X0Y346D02*
X7Y346D01*
X158Y346D02*
X177Y346D01*
X191Y346D02*
X193Y346D01*
X209Y346D02*
X211Y346D01*
X223Y346D02*
X243Y346D01*
X779Y346D02*
X786Y346D01*
X0Y345D02*
X7Y345D01*
X158Y345D02*
X178Y345D01*
X190Y345D02*
X194Y345D01*
X208Y345D02*
X212Y345D01*
X223Y345D02*
X243Y345D01*
X779Y345D02*
X786Y345D01*
X0Y344D02*
X7Y344D01*
X158Y344D02*
X179Y344D01*
X190Y344D02*
X194Y344D01*
X208Y344D02*
X212Y344D01*
X223Y344D02*
X244Y344D01*
X779Y344D02*
X786Y344D01*
X0Y343D02*
X7Y343D01*
X159Y343D02*
X179Y343D01*
X190Y343D02*
X194Y343D01*
X208Y343D02*
X212Y343D01*
X224Y343D02*
X244Y343D01*
X779Y343D02*
X786Y343D01*
X0Y342D02*
X7Y342D01*
X175Y342D02*
X179Y342D01*
X190Y342D02*
X194Y342D01*
X208Y342D02*
X212Y342D01*
X241Y342D02*
X244Y342D01*
X547Y342D02*
X563Y342D01*
X586Y342D02*
X598Y342D01*
X610Y342D02*
X613Y342D01*
X628Y342D02*
X631Y342D01*
X779Y342D02*
X786Y342D01*
X0Y341D02*
X7Y341D01*
X175Y341D02*
X179Y341D01*
X190Y341D02*
X194Y341D01*
X208Y341D02*
X212Y341D01*
X241Y341D02*
X244Y341D01*
X546Y341D02*
X564Y341D01*
X584Y341D02*
X598Y341D01*
X610Y341D02*
X613Y341D01*
X627Y341D02*
X631Y341D01*
X779Y341D02*
X786Y341D01*
X0Y340D02*
X7Y340D01*
X175Y340D02*
X179Y340D01*
X190Y340D02*
X194Y340D01*
X208Y340D02*
X212Y340D01*
X241Y340D02*
X244Y340D01*
X545Y340D02*
X565Y340D01*
X583Y340D02*
X598Y340D01*
X610Y340D02*
X613Y340D01*
X626Y340D02*
X631Y340D01*
X779Y340D02*
X786Y340D01*
X0Y339D02*
X7Y339D01*
X175Y339D02*
X179Y339D01*
X190Y339D02*
X194Y339D01*
X208Y339D02*
X212Y339D01*
X241Y339D02*
X244Y339D01*
X545Y339D02*
X565Y339D01*
X583Y339D02*
X598Y339D01*
X610Y339D02*
X613Y339D01*
X625Y339D02*
X630Y339D01*
X779Y339D02*
X786Y339D01*
X0Y338D02*
X7Y338D01*
X175Y338D02*
X179Y338D01*
X190Y338D02*
X194Y338D01*
X208Y338D02*
X212Y338D01*
X241Y338D02*
X244Y338D01*
X544Y338D02*
X548Y338D01*
X562Y338D02*
X566Y338D01*
X582Y338D02*
X587Y338D01*
X610Y338D02*
X613Y338D01*
X623Y338D02*
X629Y338D01*
X779Y338D02*
X786Y338D01*
X0Y337D02*
X7Y337D01*
X175Y337D02*
X179Y337D01*
X190Y337D02*
X194Y337D01*
X208Y337D02*
X212Y337D01*
X241Y337D02*
X244Y337D01*
X545Y337D02*
X548Y337D01*
X562Y337D02*
X566Y337D01*
X582Y337D02*
X586Y337D01*
X610Y337D02*
X613Y337D01*
X622Y337D02*
X628Y337D01*
X779Y337D02*
X786Y337D01*
X0Y336D02*
X7Y336D01*
X175Y336D02*
X179Y336D01*
X191Y336D02*
X194Y336D01*
X208Y336D02*
X211Y336D01*
X241Y336D02*
X244Y336D01*
X545Y336D02*
X549Y336D01*
X562Y336D02*
X566Y336D01*
X581Y336D02*
X585Y336D01*
X610Y336D02*
X613Y336D01*
X621Y336D02*
X627Y336D01*
X779Y336D02*
X786Y336D01*
X0Y335D02*
X7Y335D01*
X175Y335D02*
X179Y335D01*
X191Y335D02*
X195Y335D01*
X207Y335D02*
X211Y335D01*
X241Y335D02*
X244Y335D01*
X545Y335D02*
X550Y335D01*
X563Y335D02*
X565Y335D01*
X581Y335D02*
X585Y335D01*
X610Y335D02*
X613Y335D01*
X620Y335D02*
X626Y335D01*
X779Y335D02*
X786Y335D01*
X0Y334D02*
X7Y334D01*
X175Y334D02*
X179Y334D01*
X191Y334D02*
X195Y334D01*
X207Y334D02*
X211Y334D01*
X241Y334D02*
X244Y334D01*
X546Y334D02*
X551Y334D01*
X580Y334D02*
X584Y334D01*
X610Y334D02*
X613Y334D01*
X619Y334D02*
X625Y334D01*
X779Y334D02*
X786Y334D01*
X0Y333D02*
X7Y333D01*
X175Y333D02*
X179Y333D01*
X192Y333D02*
X196Y333D01*
X206Y333D02*
X210Y333D01*
X241Y333D02*
X244Y333D01*
X547Y333D02*
X552Y333D01*
X580Y333D02*
X584Y333D01*
X610Y333D02*
X613Y333D01*
X618Y333D02*
X624Y333D01*
X779Y333D02*
X786Y333D01*
X0Y332D02*
X7Y332D01*
X174Y332D02*
X179Y332D01*
X192Y332D02*
X196Y332D01*
X206Y332D02*
X210Y332D01*
X239Y332D02*
X244Y332D01*
X547Y332D02*
X552Y332D01*
X579Y332D02*
X583Y332D01*
X610Y332D02*
X613Y332D01*
X616Y332D02*
X622Y332D01*
X779Y332D02*
X786Y332D01*
X0Y331D02*
X7Y331D01*
X163Y331D02*
X178Y331D01*
X193Y331D02*
X196Y331D01*
X206Y331D02*
X210Y331D01*
X228Y331D02*
X244Y331D01*
X548Y331D02*
X553Y331D01*
X579Y331D02*
X583Y331D01*
X610Y331D02*
X613Y331D01*
X615Y331D02*
X621Y331D01*
X779Y331D02*
X786Y331D01*
X0Y330D02*
X7Y330D01*
X162Y330D02*
X178Y330D01*
X193Y330D02*
X197Y330D01*
X205Y330D02*
X209Y330D01*
X228Y330D02*
X243Y330D01*
X549Y330D02*
X554Y330D01*
X578Y330D02*
X582Y330D01*
X610Y330D02*
X620Y330D01*
X779Y330D02*
X786Y330D01*
X0Y329D02*
X7Y329D01*
X162Y329D02*
X178Y329D01*
X193Y329D02*
X197Y329D01*
X205Y329D02*
X209Y329D01*
X228Y329D02*
X243Y329D01*
X550Y329D02*
X555Y329D01*
X578Y329D02*
X582Y329D01*
X610Y329D02*
X619Y329D01*
X779Y329D02*
X786Y329D01*
X0Y328D02*
X7Y328D01*
X163Y328D02*
X178Y328D01*
X194Y328D02*
X198Y328D01*
X204Y328D02*
X208Y328D01*
X228Y328D02*
X244Y328D01*
X551Y328D02*
X555Y328D01*
X578Y328D02*
X581Y328D01*
X610Y328D02*
X618Y328D01*
X779Y328D02*
X786Y328D01*
X0Y327D02*
X7Y327D01*
X174Y327D02*
X179Y327D01*
X194Y327D02*
X198Y327D01*
X204Y327D02*
X208Y327D01*
X239Y327D02*
X244Y327D01*
X551Y327D02*
X556Y327D01*
X577Y327D02*
X581Y327D01*
X610Y327D02*
X617Y327D01*
X779Y327D02*
X786Y327D01*
X0Y326D02*
X7Y326D01*
X175Y326D02*
X179Y326D01*
X194Y326D02*
X198Y326D01*
X204Y326D02*
X208Y326D01*
X241Y326D02*
X244Y326D01*
X552Y326D02*
X557Y326D01*
X577Y326D02*
X581Y326D01*
X610Y326D02*
X615Y326D01*
X779Y326D02*
X786Y326D01*
X0Y325D02*
X7Y325D01*
X175Y325D02*
X179Y325D01*
X195Y325D02*
X199Y325D01*
X203Y325D02*
X207Y325D01*
X241Y325D02*
X244Y325D01*
X553Y325D02*
X558Y325D01*
X577Y325D02*
X581Y325D01*
X610Y325D02*
X615Y325D01*
X779Y325D02*
X786Y325D01*
X0Y324D02*
X7Y324D01*
X175Y324D02*
X179Y324D01*
X195Y324D02*
X199Y324D01*
X203Y324D02*
X207Y324D01*
X241Y324D02*
X244Y324D01*
X554Y324D02*
X559Y324D01*
X577Y324D02*
X581Y324D01*
X610Y324D02*
X616Y324D01*
X779Y324D02*
X786Y324D01*
X0Y323D02*
X7Y323D01*
X175Y323D02*
X179Y323D01*
X196Y323D02*
X200Y323D01*
X202Y323D02*
X206Y323D01*
X241Y323D02*
X244Y323D01*
X554Y323D02*
X559Y323D01*
X577Y323D02*
X581Y323D01*
X610Y323D02*
X617Y323D01*
X779Y323D02*
X786Y323D01*
X0Y322D02*
X7Y322D01*
X175Y322D02*
X179Y322D01*
X196Y322D02*
X200Y322D01*
X202Y322D02*
X206Y322D01*
X241Y322D02*
X244Y322D01*
X555Y322D02*
X560Y322D01*
X578Y322D02*
X582Y322D01*
X610Y322D02*
X618Y322D01*
X779Y322D02*
X786Y322D01*
X0Y321D02*
X7Y321D01*
X175Y321D02*
X179Y321D01*
X196Y321D02*
X206Y321D01*
X241Y321D02*
X244Y321D01*
X556Y321D02*
X561Y321D01*
X578Y321D02*
X582Y321D01*
X610Y321D02*
X620Y321D01*
X779Y321D02*
X786Y321D01*
X0Y320D02*
X7Y320D01*
X175Y320D02*
X179Y320D01*
X197Y320D02*
X205Y320D01*
X241Y320D02*
X244Y320D01*
X557Y320D02*
X562Y320D01*
X579Y320D02*
X583Y320D01*
X610Y320D02*
X621Y320D01*
X779Y320D02*
X786Y320D01*
X0Y319D02*
X7Y319D01*
X175Y319D02*
X179Y319D01*
X197Y319D02*
X205Y319D01*
X241Y319D02*
X244Y319D01*
X558Y319D02*
X562Y319D01*
X579Y319D02*
X583Y319D01*
X610Y319D02*
X613Y319D01*
X616Y319D02*
X622Y319D01*
X779Y319D02*
X786Y319D01*
X0Y318D02*
X7Y318D01*
X175Y318D02*
X179Y318D01*
X198Y318D02*
X204Y318D01*
X241Y318D02*
X244Y318D01*
X558Y318D02*
X563Y318D01*
X580Y318D02*
X584Y318D01*
X610Y318D02*
X613Y318D01*
X617Y318D02*
X623Y318D01*
X779Y318D02*
X786Y318D01*
X0Y317D02*
X7Y317D01*
X175Y317D02*
X179Y317D01*
X198Y317D02*
X204Y317D01*
X241Y317D02*
X244Y317D01*
X559Y317D02*
X564Y317D01*
X580Y317D02*
X584Y317D01*
X610Y317D02*
X613Y317D01*
X618Y317D02*
X624Y317D01*
X779Y317D02*
X786Y317D01*
X0Y316D02*
X7Y316D01*
X159Y316D02*
X179Y316D01*
X198Y316D02*
X204Y316D01*
X224Y316D02*
X244Y316D01*
X546Y316D02*
X546Y316D01*
X560Y316D02*
X565Y316D01*
X581Y316D02*
X585Y316D01*
X610Y316D02*
X613Y316D01*
X619Y316D02*
X625Y316D01*
X779Y316D02*
X786Y316D01*
X0Y315D02*
X7Y315D01*
X158Y315D02*
X179Y315D01*
X199Y315D02*
X203Y315D01*
X223Y315D02*
X244Y315D01*
X545Y315D02*
X548Y315D01*
X561Y315D02*
X565Y315D01*
X581Y315D02*
X585Y315D01*
X610Y315D02*
X613Y315D01*
X621Y315D02*
X627Y315D01*
X779Y315D02*
X786Y315D01*
X0Y314D02*
X7Y314D01*
X158Y314D02*
X178Y314D01*
X199Y314D02*
X203Y314D01*
X223Y314D02*
X244Y314D01*
X544Y314D02*
X548Y314D01*
X561Y314D02*
X566Y314D01*
X582Y314D02*
X586Y314D01*
X610Y314D02*
X613Y314D01*
X622Y314D02*
X628Y314D01*
X779Y314D02*
X786Y314D01*
X0Y313D02*
X7Y313D01*
X158Y313D02*
X177Y313D01*
X200Y313D02*
X202Y313D01*
X223Y313D02*
X243Y313D01*
X545Y313D02*
X548Y313D01*
X562Y313D02*
X566Y313D01*
X582Y313D02*
X586Y313D01*
X610Y313D02*
X613Y313D01*
X623Y313D02*
X629Y313D01*
X779Y313D02*
X786Y313D01*
X0Y312D02*
X7Y312D01*
X160Y312D02*
X175Y312D01*
X225Y312D02*
X240Y312D01*
X545Y312D02*
X566Y312D01*
X583Y312D02*
X597Y312D01*
X610Y312D02*
X613Y312D01*
X624Y312D02*
X630Y312D01*
X779Y312D02*
X786Y312D01*
X0Y311D02*
X7Y311D01*
X545Y311D02*
X565Y311D01*
X583Y311D02*
X598Y311D01*
X610Y311D02*
X613Y311D01*
X625Y311D02*
X631Y311D01*
X779Y311D02*
X786Y311D01*
X0Y310D02*
X7Y310D01*
X546Y310D02*
X565Y310D01*
X584Y310D02*
X598Y310D01*
X610Y310D02*
X613Y310D01*
X627Y310D02*
X631Y310D01*
X779Y310D02*
X786Y310D01*
X0Y309D02*
X7Y309D01*
X547Y309D02*
X564Y309D01*
X585Y309D02*
X598Y309D01*
X610Y309D02*
X613Y309D01*
X628Y309D02*
X631Y309D01*
X779Y309D02*
X786Y309D01*
X0Y308D02*
X7Y308D01*
X549Y308D02*
X562Y308D01*
X588Y308D02*
X597Y308D01*
X611Y308D02*
X612Y308D01*
X629Y308D02*
X630Y308D01*
X779Y308D02*
X786Y308D01*
X0Y307D02*
X7Y307D01*
X779Y307D02*
X786Y307D01*
X0Y306D02*
X7Y306D01*
X779Y306D02*
X786Y306D01*
X0Y305D02*
X7Y305D01*
X779Y305D02*
X786Y305D01*
X0Y304D02*
X7Y304D01*
X779Y304D02*
X786Y304D01*
X0Y303D02*
X7Y303D01*
X779Y303D02*
X786Y303D01*
X0Y302D02*
X7Y302D01*
X779Y302D02*
X786Y302D01*
X0Y301D02*
X7Y301D01*
X779Y301D02*
X786Y301D01*
X0Y300D02*
X7Y300D01*
X779Y300D02*
X786Y300D01*
X0Y299D02*
X7Y299D01*
X779Y299D02*
X786Y299D01*
X0Y298D02*
X7Y298D01*
X779Y298D02*
X786Y298D01*
X0Y297D02*
X7Y297D01*
X779Y297D02*
X786Y297D01*
X0Y296D02*
X7Y296D01*
X779Y296D02*
X786Y296D01*
X0Y295D02*
X7Y295D01*
X779Y295D02*
X786Y295D01*
X0Y294D02*
X7Y294D01*
X779Y294D02*
X786Y294D01*
X0Y293D02*
X7Y293D01*
X779Y293D02*
X786Y293D01*
X0Y292D02*
X7Y292D01*
X779Y292D02*
X786Y292D01*
X0Y291D02*
X7Y291D01*
X779Y291D02*
X786Y291D01*
X0Y290D02*
X7Y290D01*
X779Y290D02*
X786Y290D01*
X0Y289D02*
X7Y289D01*
X779Y289D02*
X786Y289D01*
X0Y288D02*
X7Y288D01*
X779Y288D02*
X786Y288D01*
X0Y287D02*
X7Y287D01*
X779Y287D02*
X786Y287D01*
X0Y286D02*
X7Y286D01*
X779Y286D02*
X786Y286D01*
X0Y285D02*
X7Y285D01*
X779Y285D02*
X786Y285D01*
X0Y284D02*
X7Y284D01*
X779Y284D02*
X786Y284D01*
X0Y283D02*
X7Y283D01*
X779Y283D02*
X786Y283D01*
X0Y282D02*
X7Y282D01*
X779Y282D02*
X786Y282D01*
X0Y281D02*
X7Y281D01*
X779Y281D02*
X786Y281D01*
X0Y280D02*
X7Y280D01*
X779Y280D02*
X786Y280D01*
X0Y279D02*
X7Y279D01*
X779Y279D02*
X786Y279D01*
X0Y278D02*
X7Y278D01*
X779Y278D02*
X786Y278D01*
X0Y277D02*
X7Y277D01*
X779Y277D02*
X786Y277D01*
X0Y276D02*
X7Y276D01*
X779Y276D02*
X786Y276D01*
X0Y275D02*
X7Y275D01*
X779Y275D02*
X786Y275D01*
X0Y274D02*
X7Y274D01*
X779Y274D02*
X786Y274D01*
X0Y273D02*
X7Y273D01*
X779Y273D02*
X786Y273D01*
X0Y272D02*
X7Y272D01*
X779Y272D02*
X786Y272D01*
X0Y271D02*
X7Y271D01*
X779Y271D02*
X786Y271D01*
X0Y270D02*
X7Y270D01*
X779Y270D02*
X786Y270D01*
X0Y269D02*
X7Y269D01*
X779Y269D02*
X786Y269D01*
X0Y268D02*
X7Y268D01*
X779Y268D02*
X786Y268D01*
X0Y267D02*
X7Y267D01*
X779Y267D02*
X786Y267D01*
X0Y266D02*
X7Y266D01*
X157Y266D02*
X169Y266D01*
X190Y266D02*
X210Y266D01*
X224Y266D02*
X241Y266D01*
X779Y266D02*
X786Y266D01*
X0Y265D02*
X7Y265D01*
X157Y265D02*
X171Y265D01*
X189Y265D02*
X211Y265D01*
X223Y265D02*
X242Y265D01*
X779Y265D02*
X786Y265D01*
X0Y264D02*
X7Y264D01*
X157Y264D02*
X172Y264D01*
X189Y264D02*
X211Y264D01*
X222Y264D02*
X243Y264D01*
X779Y264D02*
X786Y264D01*
X0Y263D02*
X7Y263D01*
X157Y263D02*
X172Y263D01*
X190Y263D02*
X210Y263D01*
X222Y263D02*
X243Y263D01*
X779Y263D02*
X786Y263D01*
X0Y262D02*
X7Y262D01*
X161Y262D02*
X165Y262D01*
X168Y262D02*
X173Y262D01*
X198Y262D02*
X202Y262D01*
X222Y262D02*
X226Y262D01*
X240Y262D02*
X243Y262D01*
X520Y262D02*
X525Y262D01*
X536Y262D02*
X541Y262D01*
X561Y262D02*
X565Y262D01*
X588Y262D02*
X603Y262D01*
X618Y262D02*
X638Y262D01*
X779Y262D02*
X786Y262D01*
X0Y261D02*
X7Y261D01*
X161Y261D02*
X165Y261D01*
X169Y261D02*
X173Y261D01*
X198Y261D02*
X202Y261D01*
X222Y261D02*
X226Y261D01*
X240Y261D02*
X243Y261D01*
X520Y261D02*
X525Y261D01*
X535Y261D02*
X541Y261D01*
X559Y261D02*
X566Y261D01*
X586Y261D02*
X604Y261D01*
X618Y261D02*
X639Y261D01*
X779Y261D02*
X786Y261D01*
X0Y260D02*
X7Y260D01*
X161Y260D02*
X165Y260D01*
X170Y260D02*
X174Y260D01*
X198Y260D02*
X202Y260D01*
X222Y260D02*
X226Y260D01*
X240Y260D02*
X243Y260D01*
X520Y260D02*
X526Y260D01*
X534Y260D02*
X541Y260D01*
X559Y260D02*
X567Y260D01*
X586Y260D02*
X605Y260D01*
X618Y260D02*
X639Y260D01*
X779Y260D02*
X786Y260D01*
X0Y259D02*
X7Y259D01*
X161Y259D02*
X165Y259D01*
X170Y259D02*
X174Y259D01*
X198Y259D02*
X202Y259D01*
X222Y259D02*
X226Y259D01*
X240Y259D02*
X243Y259D01*
X520Y259D02*
X527Y259D01*
X534Y259D02*
X541Y259D01*
X558Y259D02*
X568Y259D01*
X585Y259D02*
X606Y259D01*
X618Y259D02*
X638Y259D01*
X779Y259D02*
X786Y259D01*
X0Y258D02*
X7Y258D01*
X161Y258D02*
X165Y258D01*
X171Y258D02*
X175Y258D01*
X198Y258D02*
X202Y258D01*
X222Y258D02*
X226Y258D01*
X240Y258D02*
X243Y258D01*
X520Y258D02*
X527Y258D01*
X533Y258D02*
X541Y258D01*
X557Y258D02*
X568Y258D01*
X585Y258D02*
X589Y258D01*
X601Y258D02*
X606Y258D01*
X626Y258D02*
X630Y258D01*
X779Y258D02*
X786Y258D01*
X0Y257D02*
X7Y257D01*
X161Y257D02*
X165Y257D01*
X171Y257D02*
X175Y257D01*
X198Y257D02*
X202Y257D01*
X222Y257D02*
X226Y257D01*
X240Y257D02*
X243Y257D01*
X520Y257D02*
X528Y257D01*
X532Y257D02*
X541Y257D01*
X557Y257D02*
X561Y257D01*
X565Y257D02*
X569Y257D01*
X585Y257D02*
X589Y257D01*
X603Y257D02*
X606Y257D01*
X627Y257D02*
X630Y257D01*
X779Y257D02*
X786Y257D01*
X0Y256D02*
X7Y256D01*
X161Y256D02*
X165Y256D01*
X172Y256D02*
X176Y256D01*
X198Y256D02*
X202Y256D01*
X222Y256D02*
X226Y256D01*
X240Y256D02*
X243Y256D01*
X520Y256D02*
X529Y256D01*
X532Y256D02*
X541Y256D01*
X556Y256D02*
X561Y256D01*
X565Y256D02*
X569Y256D01*
X585Y256D02*
X589Y256D01*
X603Y256D02*
X606Y256D01*
X627Y256D02*
X630Y256D01*
X779Y256D02*
X786Y256D01*
X0Y255D02*
X7Y255D01*
X161Y255D02*
X165Y255D01*
X172Y255D02*
X176Y255D01*
X198Y255D02*
X202Y255D01*
X222Y255D02*
X226Y255D01*
X240Y255D02*
X243Y255D01*
X520Y255D02*
X523Y255D01*
X525Y255D02*
X535Y255D01*
X537Y255D02*
X541Y255D01*
X556Y255D02*
X560Y255D01*
X566Y255D02*
X570Y255D01*
X586Y255D02*
X590Y255D01*
X603Y255D02*
X606Y255D01*
X627Y255D02*
X630Y255D01*
X779Y255D02*
X786Y255D01*
X0Y254D02*
X7Y254D01*
X161Y254D02*
X165Y254D01*
X173Y254D02*
X177Y254D01*
X198Y254D02*
X202Y254D01*
X222Y254D02*
X226Y254D01*
X240Y254D02*
X243Y254D01*
X520Y254D02*
X523Y254D01*
X526Y254D02*
X535Y254D01*
X537Y254D02*
X541Y254D01*
X555Y254D02*
X560Y254D01*
X566Y254D02*
X570Y254D01*
X586Y254D02*
X591Y254D01*
X627Y254D02*
X630Y254D01*
X779Y254D02*
X786Y254D01*
X0Y253D02*
X7Y253D01*
X161Y253D02*
X165Y253D01*
X173Y253D02*
X177Y253D01*
X198Y253D02*
X202Y253D01*
X222Y253D02*
X226Y253D01*
X240Y253D02*
X243Y253D01*
X520Y253D02*
X523Y253D01*
X526Y253D02*
X534Y253D01*
X537Y253D02*
X541Y253D01*
X555Y253D02*
X559Y253D01*
X567Y253D02*
X571Y253D01*
X587Y253D02*
X592Y253D01*
X627Y253D02*
X630Y253D01*
X779Y253D02*
X786Y253D01*
X0Y252D02*
X7Y252D01*
X161Y252D02*
X165Y252D01*
X174Y252D02*
X178Y252D01*
X198Y252D02*
X202Y252D01*
X222Y252D02*
X226Y252D01*
X240Y252D02*
X243Y252D01*
X520Y252D02*
X523Y252D01*
X527Y252D02*
X533Y252D01*
X537Y252D02*
X541Y252D01*
X554Y252D02*
X559Y252D01*
X567Y252D02*
X571Y252D01*
X588Y252D02*
X593Y252D01*
X627Y252D02*
X630Y252D01*
X779Y252D02*
X786Y252D01*
X0Y251D02*
X7Y251D01*
X161Y251D02*
X165Y251D01*
X174Y251D02*
X178Y251D01*
X198Y251D02*
X202Y251D01*
X222Y251D02*
X226Y251D01*
X240Y251D02*
X243Y251D01*
X520Y251D02*
X523Y251D01*
X528Y251D02*
X533Y251D01*
X537Y251D02*
X541Y251D01*
X554Y251D02*
X558Y251D01*
X568Y251D02*
X572Y251D01*
X589Y251D02*
X593Y251D01*
X627Y251D02*
X630Y251D01*
X779Y251D02*
X786Y251D01*
X0Y250D02*
X7Y250D01*
X161Y250D02*
X165Y250D01*
X174Y250D02*
X178Y250D01*
X198Y250D02*
X202Y250D01*
X222Y250D02*
X226Y250D01*
X240Y250D02*
X243Y250D01*
X520Y250D02*
X523Y250D01*
X528Y250D02*
X532Y250D01*
X537Y250D02*
X541Y250D01*
X553Y250D02*
X558Y250D01*
X568Y250D02*
X572Y250D01*
X589Y250D02*
X594Y250D01*
X627Y250D02*
X630Y250D01*
X779Y250D02*
X786Y250D01*
X0Y249D02*
X7Y249D01*
X161Y249D02*
X165Y249D01*
X174Y249D02*
X178Y249D01*
X198Y249D02*
X202Y249D01*
X222Y249D02*
X226Y249D01*
X240Y249D02*
X243Y249D01*
X520Y249D02*
X523Y249D01*
X528Y249D02*
X532Y249D01*
X537Y249D02*
X541Y249D01*
X553Y249D02*
X557Y249D01*
X569Y249D02*
X573Y249D01*
X590Y249D02*
X595Y249D01*
X627Y249D02*
X630Y249D01*
X779Y249D02*
X786Y249D01*
X0Y248D02*
X7Y248D01*
X161Y248D02*
X165Y248D01*
X174Y248D02*
X178Y248D01*
X198Y248D02*
X202Y248D01*
X222Y248D02*
X226Y248D01*
X240Y248D02*
X243Y248D01*
X520Y248D02*
X523Y248D01*
X529Y248D02*
X532Y248D01*
X537Y248D02*
X541Y248D01*
X553Y248D02*
X557Y248D01*
X569Y248D02*
X573Y248D01*
X591Y248D02*
X596Y248D01*
X627Y248D02*
X630Y248D01*
X779Y248D02*
X786Y248D01*
X0Y247D02*
X7Y247D01*
X161Y247D02*
X165Y247D01*
X174Y247D02*
X178Y247D01*
X198Y247D02*
X202Y247D01*
X222Y247D02*
X226Y247D01*
X240Y247D02*
X243Y247D01*
X520Y247D02*
X523Y247D01*
X530Y247D02*
X531Y247D01*
X537Y247D02*
X541Y247D01*
X552Y247D02*
X556Y247D01*
X570Y247D02*
X573Y247D01*
X592Y247D02*
X596Y247D01*
X627Y247D02*
X630Y247D01*
X779Y247D02*
X786Y247D01*
X0Y246D02*
X7Y246D01*
X161Y246D02*
X165Y246D01*
X174Y246D02*
X177Y246D01*
X198Y246D02*
X202Y246D01*
X222Y246D02*
X226Y246D01*
X240Y246D02*
X243Y246D01*
X520Y246D02*
X523Y246D01*
X537Y246D02*
X541Y246D01*
X552Y246D02*
X556Y246D01*
X570Y246D02*
X574Y246D01*
X592Y246D02*
X597Y246D01*
X627Y246D02*
X630Y246D01*
X779Y246D02*
X786Y246D01*
X0Y245D02*
X7Y245D01*
X161Y245D02*
X165Y245D01*
X173Y245D02*
X177Y245D01*
X198Y245D02*
X202Y245D01*
X222Y245D02*
X226Y245D01*
X240Y245D02*
X243Y245D01*
X520Y245D02*
X523Y245D01*
X537Y245D02*
X541Y245D01*
X552Y245D02*
X556Y245D01*
X570Y245D02*
X574Y245D01*
X593Y245D02*
X598Y245D01*
X627Y245D02*
X630Y245D01*
X779Y245D02*
X786Y245D01*
X0Y244D02*
X7Y244D01*
X161Y244D02*
X165Y244D01*
X173Y244D02*
X177Y244D01*
X198Y244D02*
X202Y244D01*
X222Y244D02*
X226Y244D01*
X240Y244D02*
X243Y244D01*
X520Y244D02*
X523Y244D01*
X537Y244D02*
X541Y244D01*
X552Y244D02*
X556Y244D01*
X570Y244D02*
X573Y244D01*
X594Y244D02*
X599Y244D01*
X627Y244D02*
X630Y244D01*
X779Y244D02*
X786Y244D01*
X0Y243D02*
X7Y243D01*
X161Y243D02*
X165Y243D01*
X172Y243D02*
X176Y243D01*
X198Y243D02*
X202Y243D01*
X222Y243D02*
X226Y243D01*
X240Y243D02*
X243Y243D01*
X520Y243D02*
X523Y243D01*
X537Y243D02*
X541Y243D01*
X552Y243D02*
X556Y243D01*
X570Y243D02*
X573Y243D01*
X595Y243D02*
X600Y243D01*
X627Y243D02*
X630Y243D01*
X779Y243D02*
X786Y243D01*
X0Y242D02*
X7Y242D01*
X161Y242D02*
X165Y242D01*
X172Y242D02*
X176Y242D01*
X198Y242D02*
X202Y242D01*
X222Y242D02*
X226Y242D01*
X240Y242D02*
X243Y242D01*
X520Y242D02*
X523Y242D01*
X537Y242D02*
X541Y242D01*
X553Y242D02*
X557Y242D01*
X569Y242D02*
X573Y242D01*
X596Y242D02*
X600Y242D01*
X627Y242D02*
X630Y242D01*
X779Y242D02*
X786Y242D01*
X0Y241D02*
X7Y241D01*
X161Y241D02*
X165Y241D01*
X171Y241D02*
X175Y241D01*
X198Y241D02*
X202Y241D01*
X222Y241D02*
X226Y241D01*
X240Y241D02*
X243Y241D01*
X520Y241D02*
X523Y241D01*
X537Y241D02*
X541Y241D01*
X553Y241D02*
X557Y241D01*
X569Y241D02*
X573Y241D01*
X596Y241D02*
X601Y241D01*
X627Y241D02*
X630Y241D01*
X779Y241D02*
X786Y241D01*
X0Y240D02*
X7Y240D01*
X161Y240D02*
X165Y240D01*
X171Y240D02*
X175Y240D01*
X198Y240D02*
X202Y240D01*
X222Y240D02*
X226Y240D01*
X240Y240D02*
X243Y240D01*
X520Y240D02*
X523Y240D01*
X537Y240D02*
X541Y240D01*
X554Y240D02*
X558Y240D01*
X568Y240D02*
X572Y240D01*
X597Y240D02*
X602Y240D01*
X627Y240D02*
X630Y240D01*
X779Y240D02*
X786Y240D01*
X0Y239D02*
X7Y239D01*
X161Y239D02*
X165Y239D01*
X170Y239D02*
X174Y239D01*
X198Y239D02*
X202Y239D01*
X222Y239D02*
X226Y239D01*
X240Y239D02*
X243Y239D01*
X520Y239D02*
X523Y239D01*
X537Y239D02*
X541Y239D01*
X554Y239D02*
X558Y239D01*
X568Y239D02*
X572Y239D01*
X598Y239D02*
X603Y239D01*
X627Y239D02*
X630Y239D01*
X779Y239D02*
X786Y239D01*
X0Y238D02*
X7Y238D01*
X161Y238D02*
X165Y238D01*
X170Y238D02*
X174Y238D01*
X198Y238D02*
X202Y238D01*
X222Y238D02*
X226Y238D01*
X240Y238D02*
X243Y238D01*
X520Y238D02*
X523Y238D01*
X537Y238D02*
X541Y238D01*
X555Y238D02*
X559Y238D01*
X567Y238D02*
X571Y238D01*
X599Y238D02*
X603Y238D01*
X627Y238D02*
X630Y238D01*
X779Y238D02*
X786Y238D01*
X0Y237D02*
X7Y237D01*
X161Y237D02*
X165Y237D01*
X169Y237D02*
X173Y237D01*
X198Y237D02*
X202Y237D01*
X222Y237D02*
X226Y237D01*
X240Y237D02*
X243Y237D01*
X520Y237D02*
X523Y237D01*
X537Y237D02*
X541Y237D01*
X555Y237D02*
X559Y237D01*
X567Y237D02*
X571Y237D01*
X599Y237D02*
X604Y237D01*
X627Y237D02*
X630Y237D01*
X779Y237D02*
X786Y237D01*
X0Y236D02*
X7Y236D01*
X158Y236D02*
X173Y236D01*
X191Y236D02*
X209Y236D01*
X222Y236D02*
X243Y236D01*
X520Y236D02*
X523Y236D01*
X537Y236D02*
X541Y236D01*
X556Y236D02*
X560Y236D01*
X566Y236D02*
X570Y236D01*
X600Y236D02*
X605Y236D01*
X627Y236D02*
X630Y236D01*
X779Y236D02*
X786Y236D01*
X0Y235D02*
X7Y235D01*
X157Y235D02*
X172Y235D01*
X190Y235D02*
X210Y235D01*
X222Y235D02*
X243Y235D01*
X520Y235D02*
X523Y235D01*
X537Y235D02*
X541Y235D01*
X556Y235D02*
X560Y235D01*
X566Y235D02*
X570Y235D01*
X585Y235D02*
X588Y235D01*
X601Y235D02*
X606Y235D01*
X627Y235D02*
X630Y235D01*
X779Y235D02*
X786Y235D01*
X0Y234D02*
X7Y234D01*
X157Y234D02*
X171Y234D01*
X189Y234D02*
X211Y234D01*
X223Y234D02*
X243Y234D01*
X520Y234D02*
X523Y234D01*
X537Y234D02*
X541Y234D01*
X557Y234D02*
X561Y234D01*
X565Y234D02*
X569Y234D01*
X585Y234D02*
X588Y234D01*
X602Y234D02*
X606Y234D01*
X627Y234D02*
X630Y234D01*
X779Y234D02*
X786Y234D01*
X0Y233D02*
X7Y233D01*
X157Y233D02*
X170Y233D01*
X190Y233D02*
X210Y233D01*
X224Y233D02*
X242Y233D01*
X520Y233D02*
X523Y233D01*
X537Y233D02*
X541Y233D01*
X557Y233D02*
X561Y233D01*
X565Y233D02*
X569Y233D01*
X585Y233D02*
X589Y233D01*
X602Y233D02*
X606Y233D01*
X627Y233D02*
X630Y233D01*
X779Y233D02*
X786Y233D01*
X0Y232D02*
X7Y232D01*
X158Y232D02*
X168Y232D01*
X191Y232D02*
X210Y232D01*
X225Y232D02*
X240Y232D01*
X520Y232D02*
X523Y232D01*
X537Y232D02*
X541Y232D01*
X558Y232D02*
X568Y232D01*
X585Y232D02*
X606Y232D01*
X619Y232D02*
X637Y232D01*
X779Y232D02*
X786Y232D01*
X0Y231D02*
X7Y231D01*
X520Y231D02*
X523Y231D01*
X537Y231D02*
X541Y231D01*
X558Y231D02*
X568Y231D01*
X586Y231D02*
X606Y231D01*
X618Y231D02*
X639Y231D01*
X779Y231D02*
X786Y231D01*
X0Y230D02*
X7Y230D01*
X520Y230D02*
X523Y230D01*
X537Y230D02*
X541Y230D01*
X559Y230D02*
X567Y230D01*
X586Y230D02*
X605Y230D01*
X618Y230D02*
X639Y230D01*
X779Y230D02*
X786Y230D01*
X0Y229D02*
X7Y229D01*
X520Y229D02*
X523Y229D01*
X538Y229D02*
X541Y229D01*
X560Y229D02*
X566Y229D01*
X587Y229D02*
X605Y229D01*
X618Y229D02*
X639Y229D01*
X779Y229D02*
X786Y229D01*
X0Y228D02*
X7Y228D01*
X521Y228D02*
X522Y228D01*
X538Y228D02*
X540Y228D01*
X561Y228D02*
X564Y228D01*
X589Y228D02*
X603Y228D01*
X619Y228D02*
X638Y228D01*
X779Y228D02*
X786Y228D01*
X0Y227D02*
X7Y227D01*
X779Y227D02*
X786Y227D01*
X0Y226D02*
X7Y226D01*
X779Y226D02*
X786Y226D01*
X0Y225D02*
X7Y225D01*
X779Y225D02*
X786Y225D01*
X0Y224D02*
X7Y224D01*
X779Y224D02*
X786Y224D01*
X0Y223D02*
X7Y223D01*
X779Y223D02*
X786Y223D01*
X0Y222D02*
X7Y222D01*
X779Y222D02*
X786Y222D01*
X0Y221D02*
X7Y221D01*
X779Y221D02*
X786Y221D01*
X0Y220D02*
X7Y220D01*
X779Y220D02*
X786Y220D01*
X0Y219D02*
X7Y219D01*
X779Y219D02*
X786Y219D01*
X0Y218D02*
X7Y218D01*
X779Y218D02*
X786Y218D01*
X0Y217D02*
X7Y217D01*
X779Y217D02*
X786Y217D01*
X0Y216D02*
X7Y216D01*
X779Y216D02*
X786Y216D01*
X0Y215D02*
X7Y215D01*
X779Y215D02*
X786Y215D01*
X0Y214D02*
X7Y214D01*
X779Y214D02*
X786Y214D01*
X0Y213D02*
X7Y213D01*
X779Y213D02*
X786Y213D01*
X0Y212D02*
X7Y212D01*
X779Y212D02*
X786Y212D01*
X0Y211D02*
X7Y211D01*
X779Y211D02*
X786Y211D01*
X0Y210D02*
X7Y210D01*
X779Y210D02*
X786Y210D01*
X0Y209D02*
X7Y209D01*
X779Y209D02*
X786Y209D01*
X0Y208D02*
X7Y208D01*
X779Y208D02*
X786Y208D01*
X0Y207D02*
X7Y207D01*
X779Y207D02*
X786Y207D01*
X0Y206D02*
X7Y206D01*
X779Y206D02*
X786Y206D01*
X0Y205D02*
X7Y205D01*
X779Y205D02*
X786Y205D01*
X0Y204D02*
X7Y204D01*
X779Y204D02*
X786Y204D01*
X0Y203D02*
X7Y203D01*
X779Y203D02*
X786Y203D01*
X0Y202D02*
X7Y202D01*
X779Y202D02*
X786Y202D01*
X0Y201D02*
X7Y201D01*
X779Y201D02*
X786Y201D01*
X0Y200D02*
X7Y200D01*
X779Y200D02*
X786Y200D01*
X0Y199D02*
X7Y199D01*
X779Y199D02*
X786Y199D01*
X0Y198D02*
X7Y198D01*
X779Y198D02*
X786Y198D01*
X0Y197D02*
X7Y197D01*
X779Y197D02*
X786Y197D01*
X0Y196D02*
X7Y196D01*
X779Y196D02*
X786Y196D01*
X0Y195D02*
X7Y195D01*
X779Y195D02*
X786Y195D01*
X0Y194D02*
X7Y194D01*
X779Y194D02*
X786Y194D01*
X0Y193D02*
X7Y193D01*
X779Y193D02*
X786Y193D01*
X0Y192D02*
X7Y192D01*
X779Y192D02*
X786Y192D01*
X0Y191D02*
X7Y191D01*
X779Y191D02*
X786Y191D01*
X0Y190D02*
X7Y190D01*
X779Y190D02*
X786Y190D01*
X0Y189D02*
X7Y189D01*
X779Y189D02*
X786Y189D01*
X0Y188D02*
X7Y188D01*
X779Y188D02*
X786Y188D01*
X0Y187D02*
X7Y187D01*
X779Y187D02*
X786Y187D01*
X0Y186D02*
X7Y186D01*
X779Y186D02*
X786Y186D01*
X0Y185D02*
X7Y185D01*
X779Y185D02*
X786Y185D01*
X0Y184D02*
X7Y184D01*
X779Y184D02*
X786Y184D01*
X0Y183D02*
X7Y183D01*
X779Y183D02*
X786Y183D01*
X0Y182D02*
X7Y182D01*
X513Y182D02*
X518Y182D01*
X530Y182D02*
X534Y182D01*
X547Y182D02*
X566Y182D01*
X582Y182D02*
X596Y182D01*
X621Y182D02*
X623Y182D01*
X779Y182D02*
X786Y182D01*
X0Y181D02*
X7Y181D01*
X513Y181D02*
X519Y181D01*
X529Y181D02*
X535Y181D01*
X546Y181D02*
X567Y181D01*
X580Y181D02*
X597Y181D01*
X619Y181D02*
X625Y181D01*
X779Y181D02*
X786Y181D01*
X0Y180D02*
X7Y180D01*
X513Y180D02*
X519Y180D01*
X528Y180D02*
X535Y180D01*
X546Y180D02*
X567Y180D01*
X579Y180D02*
X598Y180D01*
X618Y180D02*
X626Y180D01*
X779Y180D02*
X786Y180D01*
X0Y179D02*
X7Y179D01*
X513Y179D02*
X520Y179D01*
X528Y179D02*
X535Y179D01*
X546Y179D02*
X567Y179D01*
X579Y179D02*
X599Y179D01*
X617Y179D02*
X627Y179D01*
X779Y179D02*
X786Y179D01*
X0Y178D02*
X7Y178D01*
X513Y178D02*
X521Y178D01*
X527Y178D02*
X535Y178D01*
X547Y178D02*
X566Y178D01*
X579Y178D02*
X600Y178D01*
X617Y178D02*
X627Y178D01*
X779Y178D02*
X786Y178D01*
X0Y177D02*
X7Y177D01*
X513Y177D02*
X522Y177D01*
X526Y177D02*
X535Y177D01*
X555Y177D02*
X558Y177D01*
X579Y177D02*
X582Y177D01*
X596Y177D02*
X600Y177D01*
X616Y177D02*
X620Y177D01*
X624Y177D02*
X628Y177D01*
X779Y177D02*
X786Y177D01*
X0Y176D02*
X7Y176D01*
X513Y176D02*
X522Y176D01*
X525Y176D02*
X535Y176D01*
X555Y176D02*
X558Y176D01*
X579Y176D02*
X583Y176D01*
X596Y176D02*
X600Y176D01*
X616Y176D02*
X620Y176D01*
X624Y176D02*
X628Y176D01*
X779Y176D02*
X786Y176D01*
X0Y175D02*
X7Y175D01*
X513Y175D02*
X523Y175D01*
X525Y175D02*
X529Y175D01*
X531Y175D02*
X535Y175D01*
X555Y175D02*
X558Y175D01*
X579Y175D02*
X584Y175D01*
X597Y175D02*
X599Y175D01*
X615Y175D02*
X619Y175D01*
X625Y175D02*
X629Y175D01*
X779Y175D02*
X786Y175D01*
X0Y174D02*
X7Y174D01*
X513Y174D02*
X517Y174D01*
X519Y174D02*
X529Y174D01*
X531Y174D02*
X535Y174D01*
X555Y174D02*
X558Y174D01*
X580Y174D02*
X584Y174D01*
X598Y174D02*
X598Y174D01*
X615Y174D02*
X619Y174D01*
X625Y174D02*
X629Y174D01*
X779Y174D02*
X786Y174D01*
X0Y173D02*
X7Y173D01*
X513Y173D02*
X517Y173D01*
X520Y173D02*
X528Y173D01*
X531Y173D02*
X535Y173D01*
X555Y173D02*
X558Y173D01*
X580Y173D02*
X585Y173D01*
X614Y173D02*
X618Y173D01*
X626Y173D02*
X630Y173D01*
X779Y173D02*
X786Y173D01*
X0Y172D02*
X7Y172D01*
X513Y172D02*
X517Y172D01*
X520Y172D02*
X527Y172D01*
X531Y172D02*
X535Y172D01*
X555Y172D02*
X558Y172D01*
X581Y172D02*
X586Y172D01*
X614Y172D02*
X618Y172D01*
X626Y172D02*
X630Y172D01*
X779Y172D02*
X786Y172D01*
X0Y171D02*
X7Y171D01*
X513Y171D02*
X517Y171D01*
X521Y171D02*
X526Y171D01*
X531Y171D02*
X535Y171D01*
X555Y171D02*
X558Y171D01*
X582Y171D02*
X587Y171D01*
X613Y171D02*
X617Y171D01*
X627Y171D02*
X631Y171D01*
X779Y171D02*
X786Y171D01*
X0Y170D02*
X7Y170D01*
X513Y170D02*
X517Y170D01*
X522Y170D02*
X526Y170D01*
X531Y170D02*
X535Y170D01*
X555Y170D02*
X558Y170D01*
X583Y170D02*
X588Y170D01*
X613Y170D02*
X617Y170D01*
X627Y170D02*
X631Y170D01*
X779Y170D02*
X786Y170D01*
X0Y169D02*
X7Y169D01*
X513Y169D02*
X517Y169D01*
X522Y169D02*
X526Y169D01*
X531Y169D02*
X535Y169D01*
X555Y169D02*
X558Y169D01*
X583Y169D02*
X588Y169D01*
X612Y169D02*
X616Y169D01*
X628Y169D02*
X632Y169D01*
X779Y169D02*
X786Y169D01*
X0Y168D02*
X7Y168D01*
X513Y168D02*
X517Y168D01*
X522Y168D02*
X525Y168D01*
X531Y168D02*
X535Y168D01*
X555Y168D02*
X558Y168D01*
X584Y168D02*
X589Y168D01*
X612Y168D02*
X616Y168D01*
X628Y168D02*
X632Y168D01*
X779Y168D02*
X786Y168D01*
X0Y167D02*
X7Y167D01*
X513Y167D02*
X517Y167D01*
X523Y167D02*
X525Y167D01*
X531Y167D02*
X535Y167D01*
X555Y167D02*
X558Y167D01*
X585Y167D02*
X590Y167D01*
X611Y167D02*
X615Y167D01*
X629Y167D02*
X632Y167D01*
X779Y167D02*
X786Y167D01*
X0Y166D02*
X7Y166D01*
X513Y166D02*
X517Y166D01*
X531Y166D02*
X535Y166D01*
X555Y166D02*
X558Y166D01*
X586Y166D02*
X591Y166D01*
X611Y166D02*
X615Y166D01*
X629Y166D02*
X632Y166D01*
X779Y166D02*
X786Y166D01*
X0Y165D02*
X7Y165D01*
X513Y165D02*
X517Y165D01*
X531Y165D02*
X535Y165D01*
X555Y165D02*
X558Y165D01*
X587Y165D02*
X591Y165D01*
X611Y165D02*
X615Y165D01*
X629Y165D02*
X633Y165D01*
X779Y165D02*
X786Y165D01*
X0Y164D02*
X7Y164D01*
X513Y164D02*
X517Y164D01*
X531Y164D02*
X535Y164D01*
X555Y164D02*
X558Y164D01*
X587Y164D02*
X592Y164D01*
X611Y164D02*
X615Y164D01*
X629Y164D02*
X633Y164D01*
X779Y164D02*
X786Y164D01*
X0Y163D02*
X7Y163D01*
X513Y163D02*
X517Y163D01*
X531Y163D02*
X535Y163D01*
X555Y163D02*
X558Y163D01*
X588Y163D02*
X593Y163D01*
X611Y163D02*
X615Y163D01*
X629Y163D02*
X632Y163D01*
X779Y163D02*
X786Y163D01*
X0Y162D02*
X7Y162D01*
X513Y162D02*
X517Y162D01*
X531Y162D02*
X535Y162D01*
X555Y162D02*
X558Y162D01*
X589Y162D02*
X594Y162D01*
X612Y162D02*
X615Y162D01*
X628Y162D02*
X632Y162D01*
X779Y162D02*
X786Y162D01*
X0Y161D02*
X7Y161D01*
X513Y161D02*
X517Y161D01*
X531Y161D02*
X535Y161D01*
X555Y161D02*
X558Y161D01*
X590Y161D02*
X595Y161D01*
X612Y161D02*
X616Y161D01*
X628Y161D02*
X632Y161D01*
X779Y161D02*
X786Y161D01*
X0Y160D02*
X7Y160D01*
X513Y160D02*
X517Y160D01*
X531Y160D02*
X535Y160D01*
X555Y160D02*
X558Y160D01*
X590Y160D02*
X595Y160D01*
X612Y160D02*
X616Y160D01*
X627Y160D02*
X631Y160D01*
X779Y160D02*
X786Y160D01*
X0Y159D02*
X7Y159D01*
X513Y159D02*
X517Y159D01*
X531Y159D02*
X535Y159D01*
X555Y159D02*
X558Y159D01*
X591Y159D02*
X596Y159D01*
X613Y159D02*
X617Y159D01*
X627Y159D02*
X631Y159D01*
X779Y159D02*
X786Y159D01*
X0Y158D02*
X7Y158D01*
X513Y158D02*
X517Y158D01*
X531Y158D02*
X535Y158D01*
X555Y158D02*
X558Y158D01*
X592Y158D02*
X597Y158D01*
X613Y158D02*
X617Y158D01*
X626Y158D02*
X630Y158D01*
X779Y158D02*
X786Y158D01*
X0Y157D02*
X7Y157D01*
X513Y157D02*
X517Y157D01*
X531Y157D02*
X535Y157D01*
X555Y157D02*
X558Y157D01*
X593Y157D02*
X598Y157D01*
X614Y157D02*
X618Y157D01*
X626Y157D02*
X630Y157D01*
X779Y157D02*
X786Y157D01*
X0Y156D02*
X7Y156D01*
X513Y156D02*
X517Y156D01*
X531Y156D02*
X535Y156D01*
X555Y156D02*
X558Y156D01*
X594Y156D02*
X598Y156D01*
X614Y156D02*
X618Y156D01*
X625Y156D02*
X629Y156D01*
X779Y156D02*
X786Y156D01*
X0Y155D02*
X7Y155D01*
X513Y155D02*
X517Y155D01*
X531Y155D02*
X535Y155D01*
X555Y155D02*
X558Y155D01*
X579Y155D02*
X581Y155D01*
X594Y155D02*
X599Y155D01*
X615Y155D02*
X619Y155D01*
X625Y155D02*
X629Y155D01*
X779Y155D02*
X786Y155D01*
X0Y154D02*
X7Y154D01*
X513Y154D02*
X517Y154D01*
X531Y154D02*
X535Y154D01*
X555Y154D02*
X558Y154D01*
X579Y154D02*
X582Y154D01*
X595Y154D02*
X600Y154D01*
X615Y154D02*
X619Y154D01*
X624Y154D02*
X628Y154D01*
X779Y154D02*
X786Y154D01*
X0Y153D02*
X7Y153D01*
X513Y153D02*
X517Y153D01*
X531Y153D02*
X535Y153D01*
X555Y153D02*
X558Y153D01*
X579Y153D02*
X582Y153D01*
X596Y153D02*
X600Y153D01*
X616Y153D02*
X620Y153D01*
X624Y153D02*
X628Y153D01*
X779Y153D02*
X786Y153D01*
X0Y152D02*
X7Y152D01*
X513Y152D02*
X517Y152D01*
X531Y152D02*
X535Y152D01*
X555Y152D02*
X558Y152D01*
X579Y152D02*
X583Y152D01*
X596Y152D02*
X600Y152D01*
X616Y152D02*
X621Y152D01*
X623Y152D02*
X627Y152D01*
X779Y152D02*
X786Y152D01*
X0Y151D02*
X7Y151D01*
X513Y151D02*
X517Y151D01*
X531Y151D02*
X535Y151D01*
X546Y151D02*
X567Y151D01*
X579Y151D02*
X600Y151D01*
X617Y151D02*
X627Y151D01*
X779Y151D02*
X786Y151D01*
X0Y150D02*
X7Y150D01*
X513Y150D02*
X517Y150D01*
X531Y150D02*
X535Y150D01*
X546Y150D02*
X567Y150D01*
X580Y150D02*
X599Y150D01*
X617Y150D02*
X626Y150D01*
X779Y150D02*
X786Y150D01*
X0Y149D02*
X7Y149D01*
X513Y149D02*
X517Y149D01*
X531Y149D02*
X534Y149D01*
X546Y149D02*
X567Y149D01*
X580Y149D02*
X599Y149D01*
X618Y149D02*
X626Y149D01*
X779Y149D02*
X786Y149D01*
X0Y148D02*
X7Y148D01*
X514Y148D02*
X516Y148D01*
X532Y148D02*
X534Y148D01*
X546Y148D02*
X567Y148D01*
X582Y148D02*
X597Y148D01*
X620Y148D02*
X624Y148D01*
X779Y148D02*
X786Y148D01*
X0Y147D02*
X7Y147D01*
X779Y147D02*
X786Y147D01*
X0Y146D02*
X7Y146D01*
X779Y146D02*
X786Y146D01*
X0Y145D02*
X7Y145D01*
X779Y145D02*
X786Y145D01*
X0Y144D02*
X7Y144D01*
X779Y144D02*
X786Y144D01*
X0Y143D02*
X7Y143D01*
X779Y143D02*
X786Y143D01*
X0Y142D02*
X7Y142D01*
X779Y142D02*
X786Y142D01*
X0Y141D02*
X7Y141D01*
X779Y141D02*
X786Y141D01*
X0Y140D02*
X7Y140D01*
X779Y140D02*
X786Y140D01*
X0Y139D02*
X7Y139D01*
X779Y139D02*
X786Y139D01*
X0Y138D02*
X7Y138D01*
X779Y138D02*
X786Y138D01*
X0Y137D02*
X7Y137D01*
X779Y137D02*
X786Y137D01*
X0Y136D02*
X7Y136D01*
X779Y136D02*
X786Y136D01*
X0Y135D02*
X7Y135D01*
X779Y135D02*
X786Y135D01*
X0Y134D02*
X7Y134D01*
X779Y134D02*
X786Y134D01*
X0Y133D02*
X7Y133D01*
X779Y133D02*
X786Y133D01*
X0Y132D02*
X7Y132D01*
X779Y132D02*
X786Y132D01*
X0Y131D02*
X7Y131D01*
X779Y131D02*
X786Y131D01*
X0Y130D02*
X7Y130D01*
X779Y130D02*
X786Y130D01*
X0Y129D02*
X7Y129D01*
X779Y129D02*
X786Y129D01*
X0Y128D02*
X7Y128D01*
X779Y128D02*
X786Y128D01*
X0Y127D02*
X7Y127D01*
X779Y127D02*
X786Y127D01*
X0Y126D02*
X7Y126D01*
X779Y126D02*
X786Y126D01*
X0Y125D02*
X7Y125D01*
X779Y125D02*
X786Y125D01*
X0Y124D02*
X7Y124D01*
X779Y124D02*
X786Y124D01*
X0Y123D02*
X7Y123D01*
X779Y123D02*
X786Y123D01*
X0Y122D02*
X7Y122D01*
X779Y122D02*
X786Y122D01*
X0Y121D02*
X7Y121D01*
X779Y121D02*
X786Y121D01*
X0Y120D02*
X7Y120D01*
X779Y120D02*
X786Y120D01*
X0Y119D02*
X7Y119D01*
X779Y119D02*
X786Y119D01*
X0Y118D02*
X7Y118D01*
X779Y118D02*
X786Y118D01*
X0Y117D02*
X7Y117D01*
X779Y117D02*
X786Y117D01*
X0Y116D02*
X7Y116D01*
X779Y116D02*
X786Y116D01*
X0Y115D02*
X7Y115D01*
X779Y115D02*
X786Y115D01*
X0Y114D02*
X7Y114D01*
X779Y114D02*
X786Y114D01*
X0Y113D02*
X7Y113D01*
X779Y113D02*
X786Y113D01*
X0Y112D02*
X7Y112D01*
X779Y112D02*
X786Y112D01*
X0Y111D02*
X7Y111D01*
X779Y111D02*
X786Y111D01*
X0Y110D02*
X7Y110D01*
X779Y110D02*
X786Y110D01*
X0Y109D02*
X7Y109D01*
X779Y109D02*
X786Y109D01*
X0Y108D02*
X7Y108D01*
X558Y108D02*
X567Y108D01*
X580Y108D02*
X585Y108D01*
X598Y108D02*
X600Y108D01*
X613Y108D02*
X624Y108D01*
X779Y108D02*
X786Y108D01*
X0Y107D02*
X7Y107D01*
X556Y107D02*
X568Y107D01*
X580Y107D02*
X585Y107D01*
X598Y107D02*
X601Y107D01*
X613Y107D02*
X626Y107D01*
X779Y107D02*
X786Y107D01*
X0Y106D02*
X7Y106D01*
X555Y106D02*
X568Y106D01*
X580Y106D02*
X586Y106D01*
X597Y106D02*
X601Y106D01*
X612Y106D02*
X627Y106D01*
X779Y106D02*
X786Y106D01*
X0Y105D02*
X7Y105D01*
X554Y105D02*
X568Y105D01*
X580Y105D02*
X586Y105D01*
X597Y105D02*
X601Y105D01*
X613Y105D02*
X628Y105D01*
X779Y105D02*
X786Y105D01*
X0Y104D02*
X7Y104D01*
X554Y104D02*
X567Y104D01*
X580Y104D02*
X587Y104D01*
X597Y104D02*
X601Y104D01*
X614Y104D02*
X628Y104D01*
X779Y104D02*
X786Y104D01*
X0Y103D02*
X7Y103D01*
X553Y103D02*
X558Y103D01*
X580Y103D02*
X587Y103D01*
X597Y103D02*
X601Y103D01*
X617Y103D02*
X620Y103D01*
X625Y103D02*
X629Y103D01*
X779Y103D02*
X786Y103D01*
X0Y102D02*
X7Y102D01*
X552Y102D02*
X557Y102D01*
X580Y102D02*
X587Y102D01*
X597Y102D02*
X601Y102D01*
X617Y102D02*
X620Y102D01*
X625Y102D02*
X629Y102D01*
X779Y102D02*
X786Y102D01*
X0Y101D02*
X7Y101D01*
X551Y101D02*
X556Y101D01*
X580Y101D02*
X588Y101D01*
X597Y101D02*
X601Y101D01*
X617Y101D02*
X620Y101D01*
X626Y101D02*
X630Y101D01*
X779Y101D02*
X786Y101D01*
X0Y100D02*
X7Y100D01*
X550Y100D02*
X555Y100D01*
X580Y100D02*
X588Y100D01*
X597Y100D02*
X601Y100D01*
X617Y100D02*
X620Y100D01*
X626Y100D02*
X630Y100D01*
X779Y100D02*
X786Y100D01*
X0Y99D02*
X7Y99D01*
X550Y99D02*
X554Y99D01*
X580Y99D02*
X583Y99D01*
X585Y99D02*
X589Y99D01*
X597Y99D02*
X601Y99D01*
X617Y99D02*
X620Y99D01*
X627Y99D02*
X631Y99D01*
X779Y99D02*
X786Y99D01*
X0Y98D02*
X7Y98D01*
X549Y98D02*
X554Y98D01*
X580Y98D02*
X583Y98D01*
X585Y98D02*
X589Y98D01*
X597Y98D02*
X601Y98D01*
X617Y98D02*
X620Y98D01*
X627Y98D02*
X631Y98D01*
X779Y98D02*
X786Y98D01*
X0Y97D02*
X7Y97D01*
X548Y97D02*
X553Y97D01*
X580Y97D02*
X583Y97D01*
X586Y97D02*
X590Y97D01*
X597Y97D02*
X601Y97D01*
X617Y97D02*
X620Y97D01*
X628Y97D02*
X632Y97D01*
X779Y97D02*
X786Y97D01*
X0Y96D02*
X7Y96D01*
X548Y96D02*
X552Y96D01*
X580Y96D02*
X583Y96D01*
X586Y96D02*
X590Y96D01*
X597Y96D02*
X601Y96D01*
X617Y96D02*
X620Y96D01*
X628Y96D02*
X632Y96D01*
X779Y96D02*
X786Y96D01*
X0Y95D02*
X7Y95D01*
X547Y95D02*
X551Y95D01*
X580Y95D02*
X583Y95D01*
X587Y95D02*
X591Y95D01*
X597Y95D02*
X601Y95D01*
X617Y95D02*
X620Y95D01*
X629Y95D02*
X633Y95D01*
X779Y95D02*
X786Y95D01*
X0Y94D02*
X7Y94D01*
X547Y94D02*
X551Y94D01*
X580Y94D02*
X583Y94D01*
X587Y94D02*
X591Y94D01*
X597Y94D02*
X601Y94D01*
X617Y94D02*
X620Y94D01*
X629Y94D02*
X633Y94D01*
X779Y94D02*
X786Y94D01*
X0Y93D02*
X7Y93D01*
X547Y93D02*
X551Y93D01*
X580Y93D02*
X583Y93D01*
X587Y93D02*
X591Y93D01*
X597Y93D02*
X601Y93D01*
X617Y93D02*
X620Y93D01*
X630Y93D02*
X633Y93D01*
X779Y93D02*
X786Y93D01*
X0Y92D02*
X7Y92D01*
X547Y92D02*
X550Y92D01*
X580Y92D02*
X583Y92D01*
X588Y92D02*
X592Y92D01*
X597Y92D02*
X601Y92D01*
X617Y92D02*
X620Y92D01*
X630Y92D02*
X634Y92D01*
X779Y92D02*
X786Y92D01*
X0Y91D02*
X7Y91D01*
X547Y91D02*
X550Y91D01*
X580Y91D02*
X583Y91D01*
X588Y91D02*
X592Y91D01*
X597Y91D02*
X601Y91D01*
X617Y91D02*
X620Y91D01*
X630Y91D02*
X634Y91D01*
X779Y91D02*
X786Y91D01*
X0Y90D02*
X7Y90D01*
X547Y90D02*
X550Y90D01*
X580Y90D02*
X583Y90D01*
X589Y90D02*
X593Y90D01*
X597Y90D02*
X601Y90D01*
X617Y90D02*
X620Y90D01*
X630Y90D02*
X634Y90D01*
X779Y90D02*
X786Y90D01*
X0Y89D02*
X7Y89D01*
X547Y89D02*
X550Y89D01*
X559Y89D02*
X568Y89D01*
X580Y89D02*
X583Y89D01*
X589Y89D02*
X593Y89D01*
X597Y89D02*
X601Y89D01*
X617Y89D02*
X620Y89D01*
X630Y89D02*
X633Y89D01*
X779Y89D02*
X786Y89D01*
X0Y88D02*
X7Y88D01*
X547Y88D02*
X550Y88D01*
X558Y88D02*
X568Y88D01*
X580Y88D02*
X583Y88D01*
X590Y88D02*
X594Y88D01*
X597Y88D02*
X601Y88D01*
X617Y88D02*
X620Y88D01*
X629Y88D02*
X633Y88D01*
X779Y88D02*
X786Y88D01*
X0Y87D02*
X7Y87D01*
X547Y87D02*
X550Y87D01*
X558Y87D02*
X568Y87D01*
X580Y87D02*
X583Y87D01*
X590Y87D02*
X594Y87D01*
X597Y87D02*
X601Y87D01*
X617Y87D02*
X620Y87D01*
X629Y87D02*
X633Y87D01*
X779Y87D02*
X786Y87D01*
X0Y86D02*
X7Y86D01*
X547Y86D02*
X550Y86D01*
X558Y86D02*
X568Y86D01*
X580Y86D02*
X583Y86D01*
X590Y86D02*
X594Y86D01*
X597Y86D02*
X601Y86D01*
X617Y86D02*
X620Y86D01*
X628Y86D02*
X632Y86D01*
X779Y86D02*
X786Y86D01*
X0Y85D02*
X7Y85D01*
X547Y85D02*
X550Y85D01*
X560Y85D02*
X568Y85D01*
X580Y85D02*
X583Y85D01*
X591Y85D02*
X595Y85D01*
X597Y85D02*
X601Y85D01*
X617Y85D02*
X620Y85D01*
X628Y85D02*
X632Y85D01*
X779Y85D02*
X786Y85D01*
X0Y84D02*
X7Y84D01*
X547Y84D02*
X550Y84D01*
X565Y84D02*
X568Y84D01*
X580Y84D02*
X583Y84D01*
X591Y84D02*
X595Y84D01*
X597Y84D02*
X601Y84D01*
X617Y84D02*
X620Y84D01*
X627Y84D02*
X631Y84D01*
X779Y84D02*
X786Y84D01*
X0Y83D02*
X7Y83D01*
X547Y83D02*
X550Y83D01*
X565Y83D02*
X568Y83D01*
X580Y83D02*
X583Y83D01*
X592Y83D02*
X601Y83D01*
X617Y83D02*
X620Y83D01*
X627Y83D02*
X631Y83D01*
X779Y83D02*
X786Y83D01*
X0Y82D02*
X7Y82D01*
X547Y82D02*
X550Y82D01*
X565Y82D02*
X568Y82D01*
X580Y82D02*
X583Y82D01*
X592Y82D02*
X601Y82D01*
X617Y82D02*
X620Y82D01*
X626Y82D02*
X630Y82D01*
X779Y82D02*
X786Y82D01*
X0Y81D02*
X7Y81D01*
X547Y81D02*
X550Y81D01*
X565Y81D02*
X568Y81D01*
X580Y81D02*
X583Y81D01*
X593Y81D02*
X601Y81D01*
X617Y81D02*
X620Y81D01*
X626Y81D02*
X630Y81D01*
X779Y81D02*
X786Y81D01*
X0Y80D02*
X7Y80D01*
X547Y80D02*
X551Y80D01*
X565Y80D02*
X568Y80D01*
X580Y80D02*
X583Y80D01*
X593Y80D02*
X601Y80D01*
X617Y80D02*
X620Y80D01*
X625Y80D02*
X629Y80D01*
X779Y80D02*
X786Y80D01*
X0Y79D02*
X7Y79D01*
X547Y79D02*
X551Y79D01*
X564Y79D02*
X568Y79D01*
X580Y79D02*
X583Y79D01*
X594Y79D02*
X601Y79D01*
X617Y79D02*
X620Y79D01*
X625Y79D02*
X629Y79D01*
X779Y79D02*
X786Y79D01*
X0Y78D02*
X7Y78D01*
X547Y78D02*
X552Y78D01*
X563Y78D02*
X568Y78D01*
X580Y78D02*
X583Y78D01*
X594Y78D02*
X601Y78D01*
X616Y78D02*
X621Y78D01*
X623Y78D02*
X628Y78D01*
X779Y78D02*
X786Y78D01*
X0Y77D02*
X7Y77D01*
X548Y77D02*
X567Y77D01*
X580Y77D02*
X583Y77D01*
X594Y77D02*
X601Y77D01*
X613Y77D02*
X628Y77D01*
X779Y77D02*
X786Y77D01*
X0Y76D02*
X7Y76D01*
X548Y76D02*
X567Y76D01*
X580Y76D02*
X583Y76D01*
X595Y76D02*
X601Y76D01*
X612Y76D02*
X627Y76D01*
X779Y76D02*
X786Y76D01*
X0Y75D02*
X7Y75D01*
X549Y75D02*
X566Y75D01*
X580Y75D02*
X583Y75D01*
X595Y75D02*
X601Y75D01*
X612Y75D02*
X626Y75D01*
X779Y75D02*
X786Y75D01*
X0Y74D02*
X7Y74D01*
X551Y74D02*
X564Y74D01*
X580Y74D02*
X582Y74D01*
X596Y74D02*
X601Y74D01*
X613Y74D02*
X625Y74D01*
X779Y74D02*
X786Y74D01*
X0Y73D02*
X7Y73D01*
X779Y73D02*
X786Y73D01*
X0Y72D02*
X7Y72D01*
X779Y72D02*
X786Y72D01*
X0Y71D02*
X7Y71D01*
X779Y71D02*
X786Y71D01*
X0Y70D02*
X7Y70D01*
X779Y70D02*
X786Y70D01*
X0Y69D02*
X7Y69D01*
X779Y69D02*
X786Y69D01*
X0Y68D02*
X7Y68D01*
X779Y68D02*
X786Y68D01*
X0Y67D02*
X7Y67D01*
X779Y67D02*
X786Y67D01*
X0Y66D02*
X7Y66D01*
X779Y66D02*
X786Y66D01*
X0Y65D02*
X7Y65D01*
X779Y65D02*
X786Y65D01*
X0Y64D02*
X7Y64D01*
X779Y64D02*
X786Y64D01*
X0Y63D02*
X7Y63D01*
X779Y63D02*
X786Y63D01*
X0Y62D02*
X7Y62D01*
X779Y62D02*
X786Y62D01*
X0Y61D02*
X7Y61D01*
X779Y61D02*
X786Y61D01*
X0Y60D02*
X7Y60D01*
X779Y60D02*
X786Y60D01*
X0Y59D02*
X7Y59D01*
X779Y59D02*
X786Y59D01*
X0Y58D02*
X7Y58D01*
X779Y58D02*
X786Y58D01*
X0Y57D02*
X7Y57D01*
X779Y57D02*
X786Y57D01*
X0Y56D02*
X7Y56D01*
X779Y56D02*
X786Y56D01*
X0Y55D02*
X7Y55D01*
X779Y55D02*
X786Y55D01*
X0Y54D02*
X7Y54D01*
X779Y54D02*
X786Y54D01*
X0Y53D02*
X7Y53D01*
X779Y53D02*
X786Y53D01*
X0Y52D02*
X7Y52D01*
X779Y52D02*
X786Y52D01*
X0Y51D02*
X7Y51D01*
X779Y51D02*
X786Y51D01*
X0Y50D02*
X7Y50D01*
X779Y50D02*
X786Y50D01*
X0Y49D02*
X7Y49D01*
X779Y49D02*
X786Y49D01*
X0Y48D02*
X7Y48D01*
X779Y48D02*
X786Y48D01*
X0Y47D02*
X7Y47D01*
X779Y47D02*
X786Y47D01*
X0Y46D02*
X7Y46D01*
X779Y46D02*
X786Y46D01*
X0Y45D02*
X7Y45D01*
X779Y45D02*
X786Y45D01*
X0Y44D02*
X7Y44D01*
X779Y44D02*
X786Y44D01*
X0Y43D02*
X7Y43D01*
X779Y43D02*
X786Y43D01*
X0Y42D02*
X7Y42D01*
X779Y42D02*
X786Y42D01*
X0Y41D02*
X7Y41D01*
X779Y41D02*
X786Y41D01*
X0Y40D02*
X7Y40D01*
X779Y40D02*
X786Y40D01*
X0Y39D02*
X7Y39D01*
X779Y39D02*
X786Y39D01*
X0Y38D02*
X7Y38D01*
X779Y38D02*
X786Y38D01*
X0Y37D02*
X7Y37D01*
X779Y37D02*
X786Y37D01*
X0Y36D02*
X7Y36D01*
X779Y36D02*
X786Y36D01*
X0Y35D02*
X7Y35D01*
X779Y35D02*
X786Y35D01*
X0Y34D02*
X7Y34D01*
X779Y34D02*
X786Y34D01*
X0Y33D02*
X7Y33D01*
X779Y33D02*
X786Y33D01*
X0Y32D02*
X7Y32D01*
X779Y32D02*
X786Y32D01*
X0Y31D02*
X7Y31D01*
X779Y31D02*
X786Y31D01*
X0Y30D02*
X7Y30D01*
X779Y30D02*
X786Y30D01*
X0Y29D02*
X7Y29D01*
X779Y29D02*
X786Y29D01*
X0Y28D02*
X7Y28D01*
X779Y28D02*
X786Y28D01*
X0Y27D02*
X7Y27D01*
X779Y27D02*
X786Y27D01*
X0Y26D02*
X7Y26D01*
X779Y26D02*
X786Y26D01*
X0Y25D02*
X7Y25D01*
X779Y25D02*
X786Y25D01*
X0Y24D02*
X7Y24D01*
X779Y24D02*
X786Y24D01*
X0Y23D02*
X7Y23D01*
X779Y23D02*
X786Y23D01*
X0Y22D02*
X7Y22D01*
X779Y22D02*
X786Y22D01*
X0Y21D02*
X7Y21D01*
X779Y21D02*
X786Y21D01*
X0Y20D02*
X7Y20D01*
X779Y20D02*
X786Y20D01*
X0Y19D02*
X7Y19D01*
X779Y19D02*
X786Y19D01*
X0Y18D02*
X7Y18D01*
X779Y18D02*
X786Y18D01*
X0Y17D02*
X7Y17D01*
X779Y17D02*
X786Y17D01*
X0Y16D02*
X7Y16D01*
X779Y16D02*
X786Y16D01*
X0Y15D02*
X7Y15D01*
X779Y15D02*
X786Y15D01*
X0Y14D02*
X7Y14D01*
X779Y14D02*
X786Y14D01*
X0Y13D02*
X7Y13D01*
X779Y13D02*
X786Y13D01*
X0Y12D02*
X7Y12D01*
X779Y12D02*
X786Y12D01*
X0Y11D02*
X7Y11D01*
X779Y11D02*
X786Y11D01*
X0Y10D02*
X7Y10D01*
X779Y10D02*
X786Y10D01*
X0Y9D02*
X786Y9D01*
X0Y8D02*
X786Y8D01*
X0Y7D02*
X786Y7D01*
X0Y6D02*
X786Y6D01*
X0Y5D02*
X786Y5D01*
X0Y4D02*
X786Y4D01*
X0Y3D02*
X786Y3D01*
X0Y2D02*
X786Y2D01*
D02*
G04 End of Silk1*
M02*